<?xml version="1.0" encoding="UTF-8"?>
<!DOCTYPE svg PUBLIC "-//W3C//DTD SVG 1.1//EN" "http://www.w3.org/Graphics/SVG/1.1/DTD/svg11.dtd">
<svg xmlns="http://www.w3.org/2000/svg" version="1.1" width="667px" height="374px" style="shape-rendering:geometricPrecision; text-rendering:geometricPrecision; image-rendering:optimizeQuality; fill-rule:evenodd; clip-rule:evenodd" xmlns:xlink="http://www.w3.org/1999/xlink">
<g><path style="opacity:0.004" fill="#000000" d="M 538.5,2.5 C 539.833,3.16667 539.833,3.16667 538.5,2.5 Z"/></g>
<g><path style="opacity:0.004" fill="#000000" d="M 160.5,3.5 C 161.833,4.16667 161.833,4.16667 160.5,3.5 Z"/></g>
<g><path style="opacity:0.004" fill="#000000" d="M 212.5,5.5 C 213.833,6.16667 213.833,6.16667 212.5,5.5 Z"/></g>
<g><path style="opacity:0.004" fill="#000000" d="M 602.5,7.5 C 603.833,8.16667 603.833,8.16667 602.5,7.5 Z"/></g>
<g><path style="opacity:0.004" fill="#fefffe" d="M 223.5,8.5 C 224.833,9.16667 224.833,9.16667 223.5,8.5 Z"/></g>
<g><path style="opacity:0.004" fill="#fefffe" d="M 442.5,13.5 C 443.833,14.1667 443.833,14.1667 442.5,13.5 Z"/></g>
<g><path style="opacity:0.004" fill="#fefffe" d="M 585.5,13.5 C 586.833,14.1667 586.833,14.1667 585.5,13.5 Z"/></g>
<g><path style="opacity:0.004" fill="#000000" d="M 397.5,14.5 C 398.833,15.1667 398.833,15.1667 397.5,14.5 Z"/></g>
<g><path style="opacity:0.004" fill="#000000" d="M 646.5,15.5 C 647.833,16.1667 647.833,16.1667 646.5,15.5 Z"/></g>
<g><path style="opacity:0.004" fill="#fefffe" d="M 473.5,18.5 C 474.833,19.1667 474.833,19.1667 473.5,18.5 Z"/></g>
<g><path style="opacity:0.004" fill="#fefffe" d="M 586.5,20.5 C 587.833,21.1667 587.833,21.1667 586.5,20.5 Z"/></g>
<g><path style="opacity:0.004" fill="#fefffe" d="M 196.5,23.5 C 197.833,24.1667 197.833,24.1667 196.5,23.5 Z"/></g>
<g><path style="opacity:0.251" fill="#080a0b" d="M 232.5,303.5 C 242.237,311.766 251.737,311.433 261,302.5C 261.49,301.207 261.657,299.873 261.5,298.5C 258.315,298.98 255.481,298.314 253,296.5C 252.5,285.505 252.333,274.505 252.5,263.5C 261.349,263.826 270.016,263.493 278.5,262.5C 279.679,259.011 279.346,255.511 277.5,252C 269.144,251.335 260.811,251.501 252.5,252.5C 252.5,241.167 252.5,229.833 252.5,218.5C 261.839,218.666 271.173,218.5 280.5,218C 283.002,214.098 283.002,210.098 280.5,206C 263.134,206.014 245.801,206.514 228.5,207.5C 228.611,206.883 228.944,206.383 229.5,206C 224.393,205.512 219.393,204.512 214.5,203C 211.988,201.473 210.321,199.306 209.5,196.5C 214.962,197.37 220.462,198.037 226,198.5C 236.104,197.019 246.271,196.186 256.5,196C 251.821,193.16 251.488,189.993 255.5,186.5C 264.474,185.222 273.474,185.222 282.5,186.5C 298.337,190.363 314.004,194.863 329.5,200C 333.833,200.667 338.167,200.667 342.5,200C 352.287,195.105 362.287,190.771 372.5,187C 381.621,187.169 390.621,188.502 399.5,191C 408.296,192.652 412.63,189.152 412.5,180.5C 405.877,179.62 399.211,179.287 392.5,179.5C 392.3,176.196 393.634,173.696 396.5,172C 396.333,171.5 396.167,171 396,170.5C 382.24,169.992 381.073,165.992 392.5,158.5C 393.922,155.225 392.922,152.891 389.5,151.5C 384.888,150.244 380.221,149.244 375.5,148.5C 369.619,150.439 363.952,152.939 358.5,156C 342.6,164.782 326.6,173.282 310.5,181.5C 309.761,181.631 309.094,181.464 308.5,181C 329.64,168.927 350.974,157.094 372.5,145.5C 359.242,140.761 346.075,135.761 333,130.5C 324.01,143.136 315.01,155.803 306,168.5C 304.989,173.471 305.489,178.137 307.5,182.5C 305.844,183.146 304.177,183.813 302.5,184.5C 300.829,184.332 299.496,183.665 298.5,182.5C 298.5,182.167 298.5,181.833 298.5,181.5C 299.83,175.705 300.496,169.538 300.5,163C 300.5,156.657 300.166,150.491 299.5,144.5C 299.5,144.167 299.5,143.833 299.5,143.5C 299.833,142.833 300.167,142.167 300.5,141.5C 300.5,128.5 300.5,115.5 300.5,102.5C 298.901,102.232 297.568,102.566 296.5,103.5C 295.833,102.833 295.167,102.167 294.5,101.5C 293.942,100.21 292.942,99.3768 291.5,99C 287.221,97.3469 282.888,95.8469 278.5,94.5C 277.713,93.7579 277.047,92.9246 276.5,92C 264.241,88.0385 252.575,82.7052 241.5,76C 239.866,75.5065 238.199,75.3398 236.5,75.5C 237.438,73.2436 237.438,70.9103 236.5,68.5C 256.023,76.9258 275.356,85.9258 294.5,95.5C 294.833,95.1667 295.167,94.8333 295.5,94.5C 283.419,80.6455 271.586,66.6455 260,52.5C 259.308,51.5632 259.475,50.8966 260.5,50.5C 275.198,66.3656 289.365,82.699 303,99.5C 318.488,91.1727 334.322,83.5061 350.5,76.5C 350.649,75.448 350.483,74.448 350,73.5C 340.116,61.2841 330.616,48.7841 321.5,36C 317.007,33.921 312.674,31.5877 308.5,29C 304.848,28.5014 301.182,28.3347 297.5,28.5C 304.602,25.1227 311.936,25.2894 319.5,29C 334.456,37.48 349.789,45.48 365.5,53C 372.095,55.4266 376.428,59.9266 378.5,66.5C 377.907,68.3817 377.24,70.2151 376.5,72C 380.993,76.0647 382.827,81.2314 382,87.5C 382.77,106.854 382.603,126.187 381.5,145.5C 389.083,145.679 395.583,148.346 401,153.5C 402.009,155.025 402.509,156.692 402.5,158.5C 407.969,158.301 411.969,160.634 414.5,165.5C 417.852,166.226 421.185,167.059 424.5,168C 429.434,170.665 430.601,174.498 428,179.5C 426.172,181.081 424.172,182.415 422,183.5C 422.483,189.705 419.983,194.205 414.5,197C 402.456,196.856 390.456,196.189 378.5,195C 369.839,197.497 361.505,200.83 353.5,205C 348.978,206.738 344.311,207.904 339.5,208.5C 329.125,206.209 318.959,203.209 309,199.5C 308.5,199.667 308,199.833 307.5,200C 309.333,205.002 307.666,208.335 302.5,210C 298.848,210.499 295.182,210.665 291.5,210.5C 293.225,217.445 290.892,222.278 284.5,225C 276.921,225.184 269.421,225.684 262,226.5C 261.333,233.833 261.333,241.167 262,248.5C 268.753,249.314 275.586,249.814 282.5,250C 288.398,254.6 289.898,260.433 287,267.5C 286.097,268.701 284.931,269.535 283.5,270C 276.331,271.072 269.164,271.906 262,272.5C 261.333,279.833 261.333,287.167 262,294.5C 270.397,296.96 272.397,301.96 268,309.5C 265.374,312.231 262.207,314.064 258.5,315C 251.615,316.098 244.949,315.431 238.5,313C 235.02,310.703 233.02,307.536 232.5,303.5 Z M 288.5,194.5 C 291.137,196.154 290.803,196.654 287.5,196C 288.056,195.617 288.389,195.117 288.5,194.5 Z"/></g>
<g><path style="opacity:0.004" fill="#fefffe" d="M 242.5,27.5 C 243.833,28.1667 243.833,28.1667 242.5,27.5 Z"/></g>
<g><path style="opacity:1" fill="#94c3da" d="M 297.5,28.5 C 301.182,28.3347 304.848,28.5014 308.5,29C 312.674,31.5877 317.007,33.921 321.5,36C 330.616,48.7841 340.116,61.2841 350,73.5C 350.483,74.448 350.649,75.448 350.5,76.5C 334.322,83.5061 318.488,91.1727 303,99.5C 289.365,82.699 275.198,66.3656 260.5,50.5C 260.167,49.8333 259.833,49.1667 259.5,48.5C 271.57,40.7975 284.236,34.1308 297.5,28.5 Z"/></g>
<g><path style="opacity:0.004" fill="#000000" d="M 614.5,30.5 C 615.833,31.1667 615.833,31.1667 614.5,30.5 Z"/></g>
<g><path style="opacity:0.004" fill="#000000" d="M 255.5,31.5 C 256.833,32.1667 256.833,32.1667 255.5,31.5 Z"/></g>
<g><path style="opacity:0.004" fill="#000000" d="M 374.5,31.5 C 375.833,32.1667 375.833,32.1667 374.5,31.5 Z"/></g>
<g><path style="opacity:0.004" fill="#fefffe" d="M 474.5,32.5 C 475.833,33.1667 475.833,33.1667 474.5,32.5 Z"/></g>
<g><path style="opacity:0.004" fill="#fefffe" d="M 116.5,34.5 C 117.833,35.1667 117.833,35.1667 116.5,34.5 Z"/></g>
<g><path style="opacity:0.004" fill="#fefffe" d="M 434.5,37.5 C 435.833,38.1667 435.833,38.1667 434.5,37.5 Z"/></g>
<g><path style="opacity:0.004" fill="#fefffe" d="M 245.5,38.5 C 246.833,39.1667 246.833,39.1667 245.5,38.5 Z"/></g>
<g><path style="opacity:0.004" fill="#000000" d="M 59.5,40.5 C 60.8333,41.1667 60.8333,41.1667 59.5,40.5 Z"/></g>
<g><path style="opacity:0.004" fill="#fefffe" d="M 464.5,41.5 C 465.833,42.1667 465.833,42.1667 464.5,41.5 Z"/></g>
<g><path style="opacity:0.004" fill="#000000" d="M 539.5,42.5 C 540.833,43.1667 540.833,43.1667 539.5,42.5 Z"/></g>
<g><path style="opacity:0.004" fill="#a2a2a2" d="M 202.5,42.5 C 203.525,42.8966 203.692,43.5632 203,44.5C 202.536,43.9056 202.369,43.2389 202.5,42.5 Z"/></g>
<g><path style="opacity:0.004" fill="#fefffe" d="M 170.5,45.5 C 171.833,46.1667 171.833,46.1667 170.5,45.5 Z"/></g>
<g><path style="opacity:0.004" fill="#fefffe" d="M 399.5,46.5 C 400.833,47.1667 400.833,47.1667 399.5,46.5 Z"/></g>
<g><path style="opacity:0.004" fill="#000000" d="M 205.5,49.5 C 206.833,50.1667 206.833,50.1667 205.5,49.5 Z"/></g>
<g><path style="opacity:0.004" fill="#000000" d="M 199.5,52.5 C 200.833,53.1667 200.833,53.1667 199.5,52.5 Z"/></g>
<g><path style="opacity:0.004" fill="#000000" d="M 377.5,52.5 C 378.833,53.1667 378.833,53.1667 377.5,52.5 Z"/></g>
<g><path style="opacity:1" fill="#71abbd" d="M 328.5,40.5 C 340.338,46.4642 352.338,52.2976 364.5,58C 367.792,60.4119 368.959,63.5786 368,67.5C 363.169,70.6711 358.003,72.8378 352.5,74C 344.644,62.6576 336.644,51.491 328.5,40.5 Z"/></g>
<g><path style="opacity:0.004" fill="#000000" d="M 583.5,54.5 C 584.833,55.1667 584.833,55.1667 583.5,54.5 Z"/></g>
<g><path style="opacity:0.004" fill="#000000" d="M 207.5,56.5 C 208.833,57.1667 208.833,57.1667 207.5,56.5 Z"/></g>
<g><path style="opacity:0.004" fill="#fefffe" d="M 576.5,56.5 C 577.833,57.1667 577.833,57.1667 576.5,56.5 Z"/></g>
<g><path style="opacity:0.004" fill="#fefffe" d="M 630.5,57.5 C 631.833,58.1667 631.833,58.1667 630.5,57.5 Z"/></g>
<g><path style="opacity:1" fill="#226092" d="M 259.5,48.5 C 259.833,49.1667 260.167,49.8333 260.5,50.5C 259.475,50.8966 259.308,51.5632 260,52.5C 271.586,66.6455 283.419,80.6455 295.5,94.5C 295.167,94.8333 294.833,95.1667 294.5,95.5C 275.356,85.9258 256.023,76.9258 236.5,68.5C 235.458,65.1426 236.125,61.9759 238.5,59C 244.975,54.429 251.975,50.929 259.5,48.5 Z"/></g>
<g><path style="opacity:0.004" fill="#fefffe" d="M 559.5,60.5 C 560.833,61.1667 560.833,61.1667 559.5,60.5 Z"/></g>
<g><path style="opacity:0.004" fill="#000000" d="M 545.5,65.5 C 546.833,66.1667 546.833,66.1667 545.5,65.5 Z"/></g>
<g><path style="opacity:0.004" fill="#000000" d="M 74.5,71.5 C 75.8333,72.1667 75.8333,72.1667 74.5,71.5 Z"/></g>
<g><path style="opacity:0.004" fill="#000000" d="M 221.5,71.5 C 222.833,72.1667 222.833,72.1667 221.5,71.5 Z"/></g>
<g><path style="opacity:0.004" fill="#fefffe" d="M 633.5,80.5 C 634.833,81.1667 634.833,81.1667 633.5,80.5 Z"/></g>
<g><path style="opacity:0.004" fill="#000000" d="M 232.5,81.5 C 232.191,92.2483 232.524,102.915 233.5,113.5C 233.167,113.5 232.833,113.5 232.5,113.5C 231.167,102.833 231.167,92.1667 232.5,81.5 Z"/></g>
<g><path style="opacity:0.004" fill="#000000" d="M 161.5,83.5 C 162.833,84.1667 162.833,84.1667 161.5,83.5 Z"/></g>
<g><path style="opacity:0.004" fill="#fefffe" d="M 188.5,85.5 C 189.833,86.1667 189.833,86.1667 188.5,85.5 Z"/></g>
<g><path style="opacity:0.004" fill="#000000" d="M 405.5,85.5 C 406.833,86.1667 406.833,86.1667 405.5,85.5 Z"/></g>
<g><path style="opacity:0.004" fill="#000000" d="M 172.5,87.5 C 173.833,88.1667 173.833,88.1667 172.5,87.5 Z"/></g>
<g><path style="opacity:1" fill="#73aec0" d="M 366.5,74.5 C 372.442,73.9072 373.942,76.2406 371,81.5C 358.833,97 346.667,112.5 334.5,128C 333.833,128.667 333.167,128.667 332.5,128C 324.613,120.113 316.779,112.279 309,104.5C 308.493,103.004 308.993,101.837 310.5,101C 329.409,92.3755 348.076,83.5421 366.5,74.5 Z"/></g>
<g><path style="opacity:0.004" fill="#000000" d="M 71.5,90.5 C 72.8333,91.1667 72.8333,91.1667 71.5,90.5 Z"/></g>
<g><path style="opacity:0.004" fill="#000000" d="M 84.5,90.5 C 85.8333,91.1667 85.8333,91.1667 84.5,90.5 Z"/></g>
<g><path style="opacity:1" fill="#3587bb" d="M 236.5,75.5 C 238.199,75.3398 239.866,75.5065 241.5,76C 252.575,82.7052 264.241,88.0385 276.5,92C 277.047,92.9246 277.713,93.7579 278.5,94.5C 282.888,95.8469 287.221,97.3469 291.5,99C 292.942,99.3768 293.942,100.21 294.5,101.5C 285.065,109.416 275.399,117.249 265.5,125C 263.833,125.667 262.167,125.667 260.5,125C 252.154,120.324 243.487,116.491 234.5,113.5C 234.167,113.5 233.833,113.5 233.5,113.5C 232.524,102.915 232.191,92.2483 232.5,81.5C 232.347,78.4647 233.68,76.4647 236.5,75.5 Z"/></g>
<g><path style="opacity:0.004" fill="#fefffe" d="M 48.5,93.5 C 49.8333,94.1667 49.8333,94.1667 48.5,93.5 Z"/></g>
<g><path style="opacity:1" fill="#d6e4e9" d="M 372.5,85.5 C 372.667,102.503 372.5,119.503 372,136.5C 368.857,137.391 365.357,137.557 361.5,137C 354.961,134.879 348.294,133.045 341.5,131.5C 339.2,131.478 338.033,130.478 338,128.5C 349.333,113.833 360.667,99.1667 372,84.5C 372.399,84.7284 372.565,85.0618 372.5,85.5 Z"/></g>
<g><path style="opacity:0.004" fill="#fefffe" d="M 434.5,93.5 C 435.833,94.1667 435.833,94.1667 434.5,93.5 Z"/></g>
<g><path style="opacity:0.004" fill="#000000" d="M 146.5,96.5 C 147.833,97.1667 147.833,97.1667 146.5,96.5 Z"/></g>
<g><path style="opacity:0.004" fill="#000000" d="M 411.5,99.5 C 412.833,100.167 412.833,100.167 411.5,99.5 Z"/></g>
<g><path style="opacity:0.004" fill="#fefffe" d="M 41.5,100.5 C 42.8333,101.167 42.8333,101.167 41.5,100.5 Z"/></g>
<g><path style="opacity:0.004" fill="#000000" d="M 160.5,101.5 C 161.833,102.167 161.833,102.167 160.5,101.5 Z"/></g>
<g><path style="opacity:0.004" fill="#000000" d="M 602.5,104.5 C 603.833,105.167 603.833,105.167 602.5,104.5 Z"/></g>
<g><path style="opacity:0.004" fill="#fefffe" d="M 507.5,108.5 C 508.833,109.167 508.833,109.167 507.5,108.5 Z"/></g>
<g><path style="opacity:0.004" fill="#fefffe" d="M 62.5,115.5 C 63.8333,116.167 63.8333,116.167 62.5,115.5 Z"/></g>
<g><path style="opacity:0.993" fill="#8ab9d0" d="M 232.5,113.5 C 232.833,113.5 233.167,113.5 233.5,113.5C 233.833,113.5 234.167,113.5 234.5,113.5C 241.96,118.565 249.96,122.899 258.5,126.5C 259.386,127.325 259.719,128.325 259.5,129.5C 257.801,129.34 256.134,129.506 254.5,130C 249.205,133.493 243.538,136.326 237.5,138.5C 236.5,139.333 235.5,140.167 234.5,141C 234.728,141.399 235.062,141.565 235.5,141.5C 234.71,142.401 233.71,143.068 232.5,143.5C 232.5,134.833 232.5,126.167 232.5,117.5C 232.5,116.167 232.5,114.833 232.5,113.5 Z"/></g>
<g><path style="opacity:0.004" fill="#000000" d="M 23.5,123.5 C 24.8333,124.167 24.8333,124.167 23.5,123.5 Z"/></g>
<g><path style="opacity:1" fill="#1e628b" d="M 306.5,108.5 C 313.77,114.774 320.437,121.774 326.5,129.5C 319.532,130.497 312.532,130.83 305.5,130.5C 305.203,123.08 305.536,115.746 306.5,108.5 Z"/></g>
<g><path style="opacity:0.004" fill="#000000" d="M 436.5,126.5 C 437.833,127.167 437.833,127.167 436.5,126.5 Z"/></g>
<g><path style="opacity:0.004" fill="#000000" d="M 67.5,127.5 C 68.8333,128.167 68.8333,128.167 67.5,127.5 Z"/></g>
<g><path style="opacity:1" fill="#2c8cb8" d="M 300.5,141.5 C 288.995,137.999 277.995,133.333 267.5,127.5C 277.013,119.253 286.68,111.253 296.5,103.5C 297.568,102.566 298.901,102.232 300.5,102.5C 300.5,115.5 300.5,128.5 300.5,141.5 Z"/></g>
<g><path style="opacity:0.004" fill="#000000" d="M 168.5,129.5 C 169.833,130.167 169.833,130.167 168.5,129.5 Z"/></g>
<g><path style="opacity:0.004" fill="#fefffe" d="M 225.5,129.5 C 226.833,130.167 226.833,130.167 225.5,129.5 Z"/></g>
<g><path style="opacity:0.004" fill="#000000" d="M 489.5,132.5 C 490.833,133.167 490.833,133.167 489.5,132.5 Z"/></g>
<g><path style="opacity:1" fill="#89b8cf" d="M 305.5,131.5 C 312.566,132.04 319.566,133.04 326.5,134.5C 319.337,144.299 312.67,154.299 306.5,164.5C 305.501,153.52 305.168,142.52 305.5,131.5 Z"/></g>
<g><path style="opacity:1" fill="#86949a" d="M 372.5,85.5 C 373.497,103.993 373.83,122.659 373.5,141.5C 362.315,139.548 351.649,136.215 341.5,131.5C 348.294,133.045 354.961,134.879 361.5,137C 365.357,137.557 368.857,137.391 372,136.5C 372.5,119.503 372.667,102.503 372.5,85.5 Z"/></g>
<g><path style="opacity:0.004" fill="#000000" d="M 59.5,142.5 C 60.8333,143.167 60.8333,143.167 59.5,142.5 Z"/></g>
<g><path style="opacity:0.004" fill="#000000" d="M 149.5,143.5 C 150.833,144.167 150.833,144.167 149.5,143.5 Z"/></g>
<g><path style="opacity:1" fill="#71afc1" d="M 299.5,143.5 C 299.5,143.833 299.5,144.167 299.5,144.5C 299.828,156.678 299.495,168.678 298.5,180.5C 294.061,178.446 289.728,176.113 285.5,173.5C 278.742,158.985 271.742,144.652 264.5,130.5C 265.365,129.417 266.365,129.251 267.5,130C 275.12,133.657 282.787,137.324 290.5,141C 293.546,141.739 296.546,142.572 299.5,143.5 Z"/></g>
<g><path style="opacity:0.004" fill="#000000" d="M 3.5,146.5 C 4.83333,147.167 4.83333,147.167 3.5,146.5 Z"/></g>
<g><path style="opacity:0.004" fill="#fefffe" d="M 118.5,148.5 C 119.833,149.167 119.833,149.167 118.5,148.5 Z"/></g>
<g><path style="opacity:0.004" fill="#fefffe" d="M 616.5,150.5 C 617.833,151.167 617.833,151.167 616.5,150.5 Z"/></g>
<g><path style="opacity:0.004" fill="#fefffe" d="M 583.5,151.5 C 584.833,152.167 584.833,152.167 583.5,151.5 Z"/></g>
<g><path style="opacity:1" fill="#2a8ebd" d="M 310.5,181.5 C 309.791,182.404 308.791,182.737 307.5,182.5C 305.489,178.137 304.989,173.471 306,168.5C 315.01,155.803 324.01,143.136 333,130.5C 346.075,135.761 359.242,140.761 372.5,145.5C 350.974,157.094 329.64,168.927 308.5,181C 309.094,181.464 309.761,181.631 310.5,181.5 Z"/></g>
<g><path style="opacity:0.965" fill="#42616e" d="M 299.5,144.5 C 300.166,150.491 300.5,156.657 300.5,163C 300.496,169.538 299.83,175.705 298.5,181.5C 298.5,181.167 298.5,180.833 298.5,180.5C 299.495,168.678 299.828,156.678 299.5,144.5 Z"/></g>
<g><path style="opacity:1" fill="#93c2d9" d="M 298.5,182.5 C 299.496,183.665 300.829,184.332 302.5,184.5C 304.177,183.813 305.844,183.146 307.5,182.5C 308.791,182.737 309.791,182.404 310.5,181.5C 326.6,173.282 342.6,164.782 358.5,156C 363.952,152.939 369.619,150.439 375.5,148.5C 380.221,149.244 384.888,150.244 389.5,151.5C 392.922,152.891 393.922,155.225 392.5,158.5C 381.073,165.992 382.24,169.992 396,170.5C 396.167,171 396.333,171.5 396.5,172C 393.634,173.696 392.3,176.196 392.5,179.5C 399.211,179.287 405.877,179.62 412.5,180.5C 412.63,189.152 408.296,192.652 399.5,191C 390.621,188.502 381.621,187.169 372.5,187C 362.287,190.771 352.287,195.105 342.5,200C 338.167,200.667 333.833,200.667 329.5,200C 314.004,194.863 298.337,190.363 282.5,186.5C 273.474,185.222 264.474,185.222 255.5,186.5C 251.488,189.993 251.821,193.16 256.5,196C 246.271,196.186 236.104,197.019 226,198.5C 220.462,198.037 214.962,197.37 209.5,196.5C 209.166,193.812 209.832,191.479 211.5,189.5C 214.312,187.924 216.978,186.09 219.5,184C 218.833,183.667 218.167,183.333 217.5,183C 206.746,182.382 196.079,181.216 185.5,179.5C 183.657,174.958 185.324,172.292 190.5,171.5C 198.112,171.299 205.446,169.799 212.5,167C 213.687,165.981 214.687,164.814 215.5,163.5C 211.123,162.778 206.79,162.111 202.5,161.5C 202.55,156.936 204.55,153.436 208.5,151C 212.144,148.344 216.144,146.511 220.5,145.5C 223.553,145.319 226.553,145.152 229.5,145C 231.029,146.791 232.696,148.458 234.5,150C 255.745,161.122 277.078,171.955 298.5,182.5 Z M 288.5,194.5 C 288.389,195.117 288.056,195.617 287.5,196C 290.803,196.654 291.137,196.154 288.5,194.5 Z"/></g>
<g><path style="opacity:0.13" fill="#131414" d="M 202.5,161.5 C 206.79,162.111 211.123,162.778 215.5,163.5C 214.687,164.814 213.687,165.981 212.5,167C 205.446,169.799 198.112,171.299 190.5,171.5C 194.833,169.498 199.5,168.498 204.5,168.5C 204.122,166.079 203.455,163.746 202.5,161.5 Z"/></g>
<g><path style="opacity:0.004" fill="#000000" d="M 587.5,161.5 C 588.833,162.167 588.833,162.167 587.5,161.5 Z"/></g>
<g><path style="opacity:0.98" fill="#8bb3c8" d="M 395.5,161.5 C 397.857,161.337 400.19,161.503 402.5,162C 404.158,162.725 404.658,163.892 404,165.5C 400.256,166.626 396.423,166.793 392.5,166C 391.549,165.282 391.383,164.449 392,163.5C 393.302,162.915 394.469,162.249 395.5,161.5 Z"/></g>
<g><path style="opacity:0.004" fill="#000000" d="M 41.5,166.5 C 42.8333,167.167 42.8333,167.167 41.5,166.5 Z"/></g>
<g><path style="opacity:0.004" fill="#000000" d="M 661.5,169.5 C 662.833,170.167 662.833,170.167 661.5,169.5 Z"/></g>
<g><path style="opacity:0.5" fill="#181e22" d="M 294.5,101.5 C 295.167,102.167 295.833,102.833 296.5,103.5C 286.68,111.253 277.013,119.253 267.5,127.5C 277.995,133.333 288.995,137.999 300.5,141.5C 300.167,142.167 299.833,142.833 299.5,143.5C 296.546,142.572 293.546,141.739 290.5,141C 282.787,137.324 275.12,133.657 267.5,130C 266.365,129.251 265.365,129.417 264.5,130.5C 271.742,144.652 278.742,158.985 285.5,173.5C 289.728,176.113 294.061,178.446 298.5,180.5C 298.5,180.833 298.5,181.167 298.5,181.5C 298.5,181.833 298.5,182.167 298.5,182.5C 277.078,171.955 255.745,161.122 234.5,150C 232.696,148.458 231.029,146.791 229.5,145C 226.553,145.152 223.553,145.319 220.5,145.5C 223.796,144.089 227.296,143.089 231,142.5C 231.171,133.99 231.671,125.657 232.5,117.5C 232.5,126.167 232.5,134.833 232.5,143.5C 232.33,144.822 232.663,145.989 233.5,147C 249.389,154.689 265.056,162.856 280.5,171.5C 280.833,171 281.167,170.5 281.5,170C 280.195,167.224 279.029,164.39 278,161.5C 272.762,151.431 267.595,141.264 262.5,131C 261.5,130.333 260.5,130.333 259.5,131C 251.761,135.275 243.761,138.775 235.5,141.5C 235.062,141.565 234.728,141.399 234.5,141C 235.5,140.167 236.5,139.333 237.5,138.5C 243.538,136.326 249.205,133.493 254.5,130C 256.134,129.506 257.801,129.34 259.5,129.5C 259.719,128.325 259.386,127.325 258.5,126.5C 249.96,122.899 241.96,118.565 234.5,113.5C 243.487,116.491 252.154,120.324 260.5,125C 262.167,125.667 263.833,125.667 265.5,125C 275.399,117.249 285.065,109.416 294.5,101.5 Z"/></g>
<g><path style="opacity:1" fill="#1d638e" d="M 232.5,143.5 C 233.71,143.068 234.71,142.401 235.5,141.5C 243.761,138.775 251.761,135.275 259.5,131C 260.5,130.333 261.5,130.333 262.5,131C 267.595,141.264 272.762,151.431 278,161.5C 279.029,164.39 280.195,167.224 281.5,170C 281.167,170.5 280.833,171 280.5,171.5C 265.056,162.856 249.389,154.689 233.5,147C 232.663,145.989 232.33,144.822 232.5,143.5 Z"/></g>
<g><path style="opacity:1" fill="#85aabb" d="M 405.5,168.5 C 409.936,168.21 414.27,168.71 418.5,170C 421.401,173.049 420.734,175.049 416.5,176C 411.833,176.667 407.167,176.667 402.5,176C 401.196,175.196 400.529,174.029 400.5,172.5C 401.662,170.462 403.328,169.128 405.5,168.5 Z"/></g>
<g><path style="opacity:0.004" fill="#000000" d="M 636.5,175.5 C 637.833,176.167 637.833,176.167 636.5,175.5 Z"/></g>
<g><path style="opacity:0.004" fill="#000000" d="M 121.5,177.5 C 122.833,178.167 122.833,178.167 121.5,177.5 Z"/></g>
<g><path style="opacity:0.004" fill="#000000" d="M 571.5,177.5 C 572.833,178.167 572.833,178.167 571.5,177.5 Z"/></g>
<g><path style="opacity:0.173" fill="#030404" d="M 185.5,179.5 C 196.079,181.216 206.746,182.382 217.5,183C 218.167,183.333 218.833,183.667 219.5,184C 216.978,186.09 214.312,187.924 211.5,189.5C 204.409,188.96 197.409,187.794 190.5,186C 187.466,184.809 185.799,182.642 185.5,179.5 Z"/></g>
<g><path style="opacity:0.004" fill="#000000" d="M 34.5,180.5 C 35.8333,181.167 35.8333,181.167 34.5,180.5 Z"/></g>
<g><path style="opacity:0.004" fill="#000000" d="M 104.5,181.5 C 105.833,182.167 105.833,182.167 104.5,181.5 Z"/></g>
<g><path style="opacity:0.004" fill="#000000" d="M 169.5,181.5 C 170.833,182.167 170.833,182.167 169.5,181.5 Z"/></g>
<g><path style="opacity:0.004" fill="#000000" d="M 63.5,183.5 C 64.8333,184.167 64.8333,184.167 63.5,183.5 Z"/></g>
<g><path style="opacity:0.004" fill="#000000" d="M 619.5,188.5 C 620.833,189.167 620.833,189.167 619.5,188.5 Z"/></g>
<g><path style="opacity:0.004" fill="#000000" d="M 75.5,189.5 C 76.8333,190.167 76.8333,190.167 75.5,189.5 Z"/></g>
<g><path style="opacity:0.004" fill="#000000" d="M 598.5,189.5 C 599.833,190.167 599.833,190.167 598.5,189.5 Z"/></g>
<g><path style="opacity:0.004" fill="#000000" d="M 595.5,191.5 C 596.833,192.167 596.833,192.167 595.5,191.5 Z"/></g>
<g><path style="opacity:1" fill="#8cb5ca" d="M 263.5,189.5 C 267.846,189.334 272.179,189.501 276.5,190C 279.807,194.679 278.474,197.345 272.5,198C 268.428,198.956 264.595,198.456 261,196.5C 259.916,193.341 260.75,191.008 263.5,189.5 Z"/></g>
<g><path style="opacity:0.004" fill="#fefffe" d="M 626.5,196.5 C 627.833,197.167 627.833,197.167 626.5,196.5 Z"/></g>
<g><path style="opacity:0.004" fill="#000000" d="M 127.5,202.5 C 128.833,203.167 128.833,203.167 127.5,202.5 Z"/></g>
<g><path style="opacity:0.776" fill="#7da6b7" d="M 287.5,197.5 C 292.414,196.812 296.747,197.979 300.5,201C 299.833,201.667 299.167,202.333 298.5,203C 293.511,203.499 288.511,203.666 283.5,203.5C 282.933,200.089 284.266,198.089 287.5,197.5 Z"/></g>
<g><path style="opacity:0.259" fill="#000101" d="M 30.5,219.5 C 31.1667,248.833 31.8333,278.167 32.5,307.5C 38.6833,308.676 45.0166,308.676 51.5,307.5C 51.8316,273.996 51.4983,240.662 50.5,207.5C 50.3893,206.883 50.056,206.383 49.5,206C 44.1771,205.501 38.8437,205.334 33.5,205.5C 33.9175,204.778 34.5842,204.278 35.5,204C 42.1667,203.333 48.8333,203.333 55.5,204C 57.8147,205.109 59.3147,206.943 60,209.5C 60.3767,242.527 60.71,275.527 61,308.5C 60.1667,311.333 58.3333,313.167 55.5,314C 48.0085,316.283 40.6752,315.949 33.5,313C 32.5399,311.581 31.7065,310.081 31,308.5C 30.5,278.835 30.3334,249.169 30.5,219.5 Z"/></g>
<g><path style="opacity:0.999" fill="#3488bc" d="M 33.5,205.5 C 38.8437,205.334 44.1771,205.501 49.5,206C 50.056,206.383 50.3893,206.883 50.5,207.5C 50.5,240.5 50.5,273.5 50.5,306.5C 44.5164,307.074 38.5164,307.407 32.5,307.5C 31.8333,278.167 31.1667,248.833 30.5,219.5C 29.4042,215.587 29.2375,211.587 30,207.5C 30.8159,206.177 31.9826,205.511 33.5,205.5 Z"/></g>
<g><path style="opacity:0.004" fill="#000000" d="M 413.5,208.5 C 414.833,209.167 414.833,209.167 413.5,208.5 Z"/></g>
<g><path style="opacity:0.004" fill="#fefffe" d="M 344.5,209.5 C 345.833,210.167 345.833,210.167 344.5,209.5 Z"/></g>
<g><path style="opacity:0.25" fill="#010102" d="M 607.5,294.5 C 607.389,295.117 607.056,295.617 606.5,296C 603.845,296.564 601.179,297.064 598.5,297.5C 596.626,297.61 595.126,296.944 594,295.5C 593.5,277.503 593.333,259.503 593.5,241.5C 604.346,241.828 615.013,241.494 625.5,240.5C 626.777,239.306 627.444,237.64 627.5,235.5C 627.46,233.571 627.127,231.738 626.5,230C 615.478,229.287 604.478,229.453 593.5,230.5C 593.666,224.824 593.499,219.157 593,213.5C 590.959,212.577 588.792,212.244 586.5,212.5C 585.167,212.5 583.833,212.5 582.5,212.5C 597.167,206.833 603.833,211.833 602.5,227.5C 611.839,227.334 621.173,227.5 630.5,228C 634.823,230.106 636.823,233.606 636.5,238.5C 636.651,243.033 634.651,246.2 630.5,248C 621.256,248.181 612.089,248.681 603,249.5C 602.333,264.167 602.333,278.833 603,293.5C 604.356,294.38 605.856,294.714 607.5,294.5 Z"/></g>
<g><path style="opacity:0.004" fill="#000000" d="M 175.5,211.5 C 176.833,212.167 176.833,212.167 175.5,211.5 Z"/></g>
<g><path style="opacity:0.027" fill="#020303" d="M 223.5,216.5 C 228.463,215.716 231.297,217.716 232,222.5C 232.5,249.498 232.667,276.498 232.5,303.5C 231.668,277.337 231.168,251.003 231,224.5C 226.677,223.445 224.177,220.778 223.5,216.5 Z"/></g>
<g><path style="opacity:0.004" fill="#000000" d="M 5.5,217.5 C 6.83333,218.167 6.83333,218.167 5.5,217.5 Z"/></g>
<g><path style="opacity:0.976" fill="#2e5a76" d="M 50.5,207.5 C 51.4983,240.662 51.8316,273.996 51.5,307.5C 45.0166,308.676 38.6833,308.676 32.5,307.5C 38.5164,307.407 44.5164,307.074 50.5,306.5C 50.5,273.5 50.5,240.5 50.5,207.5 Z"/></g>
<g><path style="opacity:1" fill="#3987b9" d="M 252.5,218.5 C 251.505,229.988 251.172,241.655 251.5,253.5C 259.84,253.334 268.173,253.5 276.5,254C 277.991,256.621 278.658,259.455 278.5,262.5C 270.016,263.493 261.349,263.826 252.5,263.5C 252.333,274.505 252.5,285.505 253,296.5C 255.481,298.314 258.315,298.98 261.5,298.5C 261.657,299.873 261.49,301.207 261,302.5C 251.737,311.433 242.237,311.766 232.5,303.5C 232.667,276.498 232.5,249.498 232,222.5C 231.297,217.716 228.463,215.716 223.5,216.5C 222.417,211.869 224.083,208.869 228.5,207.5C 245.801,206.514 263.134,206.014 280.5,206C 283.002,210.098 283.002,214.098 280.5,218C 271.173,218.5 261.839,218.666 252.5,218.5 Z"/></g>
<g><path style="opacity:0.004" fill="#000000" d="M 653.5,221.5 C 654.833,222.167 654.833,222.167 653.5,221.5 Z"/></g>
<g><path style="opacity:0.004" fill="#000000" d="M 110.5,222.5 C 111.833,223.167 111.833,223.167 110.5,222.5 Z"/></g>
<g><path style="opacity:1" fill="#3686b8" d="M 582.5,212.5 C 583.833,212.5 585.167,212.5 586.5,212.5C 588.102,214.074 590.102,214.741 592.5,214.5C 592.5,220.5 592.5,226.5 592.5,232.5C 603.5,232.5 614.5,232.5 625.5,232.5C 625.5,235.167 625.5,237.833 625.5,240.5C 615.013,241.494 604.346,241.828 593.5,241.5C 593.333,259.503 593.5,277.503 594,295.5C 595.126,296.944 596.626,297.61 598.5,297.5C 601.179,297.064 603.845,296.564 606.5,296C 607.056,295.617 607.389,295.117 607.5,294.5C 608.136,286.89 608.803,279.223 609.5,271.5C 610.417,270.873 611.417,270.539 612.5,270.5C 618.182,270.132 623.348,271.466 628,274.5C 628.667,282.167 628.667,289.833 628,297.5C 624.433,303.367 619.266,306.867 612.5,308C 604.833,308.667 597.167,308.667 589.5,308C 582.044,306.802 576.711,302.968 573.5,296.5C 573.5,278.167 573.5,259.833 573.5,241.5C 571.208,241.244 569.041,241.577 567,242.5C 565.477,240.431 564.643,238.097 564.5,235.5C 564.286,233.856 564.62,232.356 565.5,231C 568.684,229.496 571.851,227.996 575,226.5C 576,222.833 577,219.167 578,215.5C 579.271,214.117 580.771,213.117 582.5,212.5 Z"/></g>
<g><path style="opacity:0.004" fill="#fefffe" d="M 335.5,225.5 C 336.833,226.167 336.833,226.167 335.5,225.5 Z"/></g>
<g><path style="opacity:0.193" fill="#020203" d="M 101.5,260.5 C 106.511,260.666 111.511,260.499 116.5,260C 118.09,258.954 119.59,257.787 121,256.5C 121.667,251.167 121.667,245.833 121,240.5C 120.392,238.934 119.558,237.6 118.5,236.5C 114.172,232.173 108.839,229.673 102.5,229C 95.1439,228.364 87.8106,228.531 80.5,229.5C 93.4095,225.433 106.41,225.6 119.5,230C 128.124,234.238 132.124,241.238 131.5,251C 132.553,260.258 128.553,265.591 119.5,267C 113.621,268.223 108.121,267.389 103,264.5C 102.209,263.255 101.709,261.922 101.5,260.5 Z"/></g>
<g><path style="opacity:0.229" fill="#030506" d="M 66.5,297.5 C 69.1187,302.985 73.452,306.318 79.5,307.5C 88.491,310.065 97.491,310.065 106.5,307.5C 112.152,307.062 117.152,305.062 121.5,301.5C 122.641,299.579 122.808,297.579 122,295.5C 119.365,292.67 116.199,291.004 112.5,290.5C 117.113,287.814 121.78,287.981 126.5,291C 128.734,293.063 130.734,295.229 132.5,297.5C 135.906,303.042 140.906,306.542 147.5,308C 156.167,308.667 164.833,308.667 173.5,308C 187.08,304.705 191.913,296.205 188,282.5C 184.437,279.61 180.27,278.277 175.5,278.5C 172.389,278.012 170.056,279.012 168.5,281.5C 163.555,281.611 161.221,284.111 161.5,289C 160.761,293.76 162.761,295.593 167.5,294.5C 161.936,298.574 156.769,298.241 152,293.5C 151.333,288.5 151.333,283.5 152,278.5C 161.455,273.855 170.955,269.355 180.5,265C 188.155,258.567 190.988,250.4 189,240.5C 181.811,231.371 172.311,227.371 160.5,228.5C 155.814,228.686 151.147,229.019 146.5,229.5C 149.258,228.239 152.258,227.406 155.5,227C 166.89,225.45 177.89,226.783 188.5,231C 201.27,241.227 202.77,253.06 193,266.5C 189.62,270.103 185.787,273.103 181.5,275.5C 195.781,276.7 201.281,284.366 198,298.5C 196.642,306.193 192.142,311.027 184.5,313C 171.5,316.333 158.5,316.333 145.5,313C 139.333,310.833 135.167,306.667 133,300.5C 130.656,307.508 125.823,311.674 118.5,313C 107.624,315.412 96.6244,316.078 85.5,315C 75.0901,313.418 68.7568,307.585 66.5,297.5 Z M 168.5,281.5 C 170.131,286.12 169.798,290.454 167.5,294.5C 162.761,295.593 160.761,293.76 161.5,289C 161.221,284.111 163.555,281.611 168.5,281.5 Z"/></g>
<g><path style="opacity:0.232" fill="#030405" d="M 354.5,242.5 C 354.333,259.837 354.5,277.17 355,294.5C 357.333,296.167 359.667,297.833 362,299.5C 362.49,298.207 362.657,296.873 362.5,295.5C 363.621,297.741 364.787,300.075 366,302.5C 367.488,304.16 369.321,305.16 371.5,305.5C 372.347,306.966 373.68,307.8 375.5,308C 381.702,310.129 387.702,309.962 393.5,307.5C 395.632,306.273 397.966,305.273 400.5,304.5C 402.064,305.769 403.731,306.936 405.5,308C 410.833,308.667 416.167,308.667 421.5,308C 424.638,306.029 426.305,303.196 426.5,299.5C 424.473,299.662 422.473,299.495 420.5,299C 419.809,297.933 419.309,296.766 419,295.5C 418.667,274.167 418.333,252.833 418,231.5C 417.5,231 417,230.5 416.5,230C 411.511,229.501 406.511,229.334 401.5,229.5C 401.918,228.778 402.584,228.278 403.5,228C 409.5,227.333 415.5,227.333 421.5,228C 423.286,228.785 424.786,229.951 426,231.5C 427.311,252.411 427.978,273.411 428,294.5C 430,295.833 432,297.167 434,298.5C 434.49,297.207 434.657,295.873 434.5,294.5C 436.756,301.918 441.756,306.418 449.5,308C 458.167,308.667 466.833,308.667 475.5,308C 481.099,306.451 486.266,303.951 491,300.5C 491.667,298.833 491.667,297.167 491,295.5C 488.365,292.67 485.199,291.004 481.5,290.5C 486.113,287.814 490.78,287.981 495.5,291C 497.734,293.063 499.734,295.229 501.5,297.5C 504.998,302.934 509.998,306.434 516.5,308C 528.022,309.13 539.355,308.13 550.5,305C 553.333,303.5 555.5,301.333 557,298.5C 557.667,292.833 557.667,287.167 557,281.5C 551.484,278.754 545.651,277.921 539.5,279C 538.944,279.383 538.611,279.883 538.5,280.5C 530.941,281.778 528.441,286.111 531,293.5C 532.699,294.406 534.533,294.739 536.5,294.5C 532.354,297.259 527.854,297.926 523,296.5C 521.347,290.208 521.181,283.874 522.5,277.5C 530.055,273.889 537.722,270.555 545.5,267.5C 557.588,260.471 561.088,250.471 556,237.5C 548.624,230.604 539.791,227.604 529.5,228.5C 524.814,228.686 520.147,229.019 515.5,229.5C 528.763,225.36 542.096,225.527 555.5,230C 558.556,231.856 561.556,233.689 564.5,235.5C 564.643,238.097 565.477,240.431 567,242.5C 569.041,241.577 571.208,241.244 573.5,241.5C 573.5,259.833 573.5,278.167 573.5,296.5C 572.669,281.005 572.169,265.339 572,249.5C 570.989,248.663 569.822,248.33 568.5,248.5C 567.278,260.716 561.278,269.716 550.5,275.5C 561.9,275.567 567.567,281.233 567.5,292.5C 568.171,299.984 565.505,305.817 559.5,310C 555.186,312.66 550.519,314.327 545.5,315C 536.114,315.853 526.781,315.519 517.5,314C 509.974,312.161 504.808,307.661 502,300.5C 501.263,304.047 499.43,306.88 496.5,309C 490.905,312.198 484.905,314.198 478.5,315C 469.105,315.886 459.772,315.553 450.5,314C 444.543,312.377 440.043,308.877 437,303.5C 435.092,309.74 430.925,313.573 424.5,315C 417.372,316.172 410.538,315.339 404,312.5C 392.062,317.16 380.562,316.327 369.5,310C 366.469,307.441 364.302,304.274 363,300.5C 363.277,308.56 359.443,313.393 351.5,315C 346.5,315.667 341.5,315.667 336.5,315C 334.481,314.55 332.648,313.717 331,312.5C 320.112,316.644 309.278,316.478 298.5,312C 291.696,307.697 288.03,301.53 287.5,293.5C 291.312,303.939 298.979,309.273 310.5,309.5C 316.214,308.991 321.714,307.658 327,305.5C 334.659,310.187 342.492,310.521 350.5,306.5C 352.854,304.754 353.854,302.421 353.5,299.5C 350.014,300.171 347.347,299.171 345.5,296.5C 345.667,278.164 345.5,259.83 345,241.5C 344.777,239.119 343.61,237.453 341.5,236.5C 338.862,233.379 335.528,231.212 331.5,230C 322.195,228.168 312.862,228.002 303.5,229.5C 314.556,226.121 325.889,225.621 337.5,228C 345.547,230.225 351.213,235.058 354.5,242.5 Z M 354.5,242.5 C 356.83,244.667 359.497,246.334 362.5,247.5C 362.5,263.5 362.5,279.5 362.5,295.5C 362.657,296.873 362.49,298.207 362,299.5C 359.667,297.833 357.333,296.167 355,294.5C 354.5,277.17 354.333,259.837 354.5,242.5 Z M 538.5,280.5 C 538.666,284.846 538.499,289.179 538,293.5C 537.617,294.056 537.117,294.389 536.5,294.5C 534.533,294.739 532.699,294.406 531,293.5C 528.441,286.111 530.941,281.778 538.5,280.5 Z M 538.5,250.5 C 537.931,254.329 535.931,256.996 532.5,258.5C 530.598,255.663 529.931,252.329 530.5,248.5C 532.857,248.337 535.19,248.503 537.5,249C 538.056,249.383 538.389,249.883 538.5,250.5 Z"/></g>
<g><path style="opacity:0.3" fill="#010303" d="M 395.5,293.5 C 391.846,296.597 387.679,297.263 383,295.5C 382.816,275.302 382.316,255.136 381.5,235C 376.973,229.21 370.973,227.043 363.5,228.5C 371.427,225.355 379.094,226.022 386.5,230.5C 387.861,232.028 389.028,233.695 390,235.5C 391.296,254.435 391.962,273.435 392,292.5C 393.011,293.337 394.178,293.67 395.5,293.5 Z"/></g>
<g><path style="opacity:0.191" fill="#020304" d="M 470.5,260.5 C 489.174,263.66 495.341,256.327 489,238.5C 482.451,230.657 473.951,227.323 463.5,228.5C 458.814,228.686 454.147,229.019 449.5,229.5C 462.416,225.394 475.416,225.56 488.5,230C 499.023,236.167 502.857,245.334 500,257.5C 498.482,263.357 494.648,266.524 488.5,267C 482.621,268.223 477.121,267.389 472,264.5C 471.59,263.099 471.09,261.766 470.5,260.5 Z"/></g>
<g><path style="opacity:0.574" fill="#45718a" d="M 118.5,236.5 C 103.172,229.344 87.5057,228.678 71.5,234.5C 73.756,231.595 76.756,229.928 80.5,229.5C 87.8106,228.531 95.1439,228.364 102.5,229C 108.839,229.673 114.172,232.173 118.5,236.5 Z"/></g>
<g><path style="opacity:0.004" fill="#fefffe" d="M 494.5,229.5 C 495.833,230.167 495.833,230.167 494.5,229.5 Z"/></g>
<g><path style="opacity:0.88" fill="#3a6e8d" d="M 586.5,212.5 C 588.792,212.244 590.959,212.577 593,213.5C 593.499,219.157 593.666,224.824 593.5,230.5C 604.478,229.453 615.478,229.287 626.5,230C 627.127,231.738 627.46,233.571 627.5,235.5C 627.444,237.64 626.777,239.306 625.5,240.5C 625.5,237.833 625.5,235.167 625.5,232.5C 614.5,232.5 603.5,232.5 592.5,232.5C 592.5,226.5 592.5,220.5 592.5,214.5C 590.102,214.741 588.102,214.074 586.5,212.5 Z"/></g>
<g><path style="opacity:1" fill="#3784b6" d="M 363.5,228.5 C 370.973,227.043 376.973,229.21 381.5,235C 382.316,255.136 382.816,275.302 383,295.5C 387.679,297.263 391.846,296.597 395.5,293.5C 396.458,293.047 397.292,292.381 398,291.5C 398.775,272.654 398.609,253.82 397.5,235C 396.717,231.406 398.05,229.573 401.5,229.5C 406.511,229.334 411.511,229.501 416.5,230C 417,230.5 417.5,231 418,231.5C 418.333,252.833 418.667,274.167 419,295.5C 419.309,296.766 419.809,297.933 420.5,299C 422.473,299.495 424.473,299.662 426.5,299.5C 426.305,303.196 424.638,306.029 421.5,308C 416.167,308.667 410.833,308.667 405.5,308C 403.731,306.936 402.064,305.769 400.5,304.5C 397.966,305.273 395.632,306.273 393.5,307.5C 386.058,307.778 378.724,307.112 371.5,305.5C 369.321,305.16 367.488,304.16 366,302.5C 364.787,300.075 363.621,297.741 362.5,295.5C 362.5,279.5 362.5,263.5 362.5,247.5C 362.5,244.833 362.5,242.167 362.5,239.5C 359.833,239.5 357.167,239.5 354.5,239.5C 354.182,233.149 357.182,229.482 363.5,228.5 Z"/></g>
<g><path style="opacity:1" fill="#3787b9" d="M 470.5,260.5 C 470.5,258.833 470.5,257.167 470.5,255.5C 471.906,250.85 471.572,246.183 469.5,241.5C 465.223,240.394 460.89,240.228 456.5,241C 456,241.5 455.5,242 455,242.5C 454.333,258.833 454.333,275.167 455,291.5C 456.407,297.061 459.907,298.895 465.5,297C 468.004,296.302 470.337,295.469 472.5,294.5C 475.544,293.483 478.544,292.149 481.5,290.5C 485.199,291.004 488.365,292.67 491,295.5C 491.667,297.167 491.667,298.833 491,300.5C 486.266,303.951 481.099,306.451 475.5,308C 466.833,308.667 458.167,308.667 449.5,308C 441.756,306.418 436.756,301.918 434.5,294.5C 434.333,277.497 434.5,260.497 435,243.5C 437.057,235.943 441.89,231.276 449.5,229.5C 454.147,229.019 458.814,228.686 463.5,228.5C 473.951,227.323 482.451,230.657 489,238.5C 495.341,256.327 489.174,263.66 470.5,260.5 Z"/></g>
<g><path style="opacity:1" fill="#3584b6" d="M 118.5,236.5 C 119.558,237.6 120.392,238.934 121,240.5C 121.667,245.833 121.667,251.167 121,256.5C 119.59,257.787 118.09,258.954 116.5,260C 111.511,260.499 106.511,260.666 101.5,260.5C 101.5,259.167 101.5,257.833 101.5,256.5C 105.282,241.78 100.116,237.113 86,242.5C 85.3333,258.833 85.3333,275.167 86,291.5C 86.2952,294.96 88.1286,296.96 91.5,297.5C 95.7317,296.916 99.7317,295.916 103.5,294.5C 106.544,293.483 109.544,292.149 112.5,290.5C 116.199,291.004 119.365,292.67 122,295.5C 122.808,297.579 122.641,299.579 121.5,301.5C 117.152,305.062 112.152,307.062 106.5,307.5C 97.5,307.5 88.5,307.5 79.5,307.5C 73.452,306.318 69.1187,302.985 66.5,297.5C 65.338,279.671 65.1713,261.671 66,243.5C 66.3241,239.508 68.1574,236.508 71.5,234.5C 87.5057,228.678 103.172,229.344 118.5,236.5 Z"/></g>
<g><path style="opacity:0.058" fill="#0a0d0f" d="M 354.5,239.5 C 357.167,239.5 359.833,239.5 362.5,239.5C 362.5,242.167 362.5,244.833 362.5,247.5C 359.497,246.334 356.83,244.667 354.5,242.5C 354.5,241.5 354.5,240.5 354.5,239.5 Z"/></g>
<g><path style="opacity:0.32" fill="#010303" d="M 101.5,256.5 C 101.5,253.833 101.5,251.167 101.5,248.5C 99.2075,248.244 97.0408,248.577 95,249.5C 94.3333,263.5 94.3333,277.5 95,291.5C 95.3742,292.416 95.8742,293.25 96.5,294C 98.8098,294.497 101.143,294.663 103.5,294.5C 99.7317,295.916 95.7317,296.916 91.5,297.5C 88.1286,296.96 86.2952,294.96 86,291.5C 85.3333,275.167 85.3333,258.833 86,242.5C 100.116,237.113 105.282,241.78 101.5,256.5 Z"/></g>
<g><path style="opacity:0.238" fill="#050709" d="M 325.5,249.5 C 323.283,248.631 320.95,248.298 318.5,248.5C 318.359,253.749 318.359,258.749 318.5,263.5C 314.134,266.012 309.467,268.012 304.5,269.5C 304.611,268.883 304.944,268.383 305.5,268C 299.538,267.853 294.538,265.686 290.5,261.5C 289.188,254.705 289.188,248.038 290.5,241.5C 290.334,247.176 290.501,252.843 291,258.5C 292.067,259.191 293.234,259.691 294.5,260C 299.155,260.499 303.821,260.666 308.5,260.5C 308.334,254.824 308.501,249.157 309,243.5C 309.833,242.667 310.667,241.833 311.5,241C 315.956,240.133 320.289,240.466 324.5,242C 326.64,244.173 326.974,246.673 325.5,249.5 Z"/></g>
<g><path style="opacity:0.323" fill="#020405" d="M 470.5,255.5 C 470.5,253.167 470.5,250.833 470.5,248.5C 468.208,248.244 466.041,248.577 464,249.5C 463.333,263.5 463.333,277.5 464,291.5C 464.374,292.416 464.874,293.25 465.5,294C 467.81,294.497 470.143,294.663 472.5,294.5C 470.337,295.469 468.004,296.302 465.5,297C 459.907,298.895 456.407,297.061 455,291.5C 454.333,275.167 454.333,258.833 455,242.5C 455.5,242 456,241.5 456.5,241C 460.89,240.228 465.223,240.394 469.5,241.5C 471.572,246.183 471.906,250.85 470.5,255.5 Z"/></g>
<g><path style="opacity:0.004" fill="#fefffe" d="M 266.5,247.5 C 267.833,248.167 267.833,248.167 266.5,247.5 Z"/></g>
<g><path style="opacity:0.682" fill="#2b637f" d="M 252.5,218.5 C 252.5,229.833 252.5,241.167 252.5,252.5C 260.811,251.501 269.144,251.335 277.5,252C 279.346,255.511 279.679,259.011 278.5,262.5C 278.658,259.455 277.991,256.621 276.5,254C 268.173,253.5 259.84,253.334 251.5,253.5C 251.172,241.655 251.505,229.988 252.5,218.5 Z"/></g>
<g><path style="opacity:1" fill="#3587ba" d="M 341.5,236.5 C 342.511,238.372 343.345,240.372 344,242.5C 344.168,260.671 344.668,278.671 345.5,296.5C 347.347,299.171 350.014,300.171 353.5,299.5C 353.854,302.421 352.854,304.754 350.5,306.5C 342.492,310.521 334.659,310.187 327,305.5C 321.714,307.658 316.214,308.991 310.5,309.5C 298.979,309.273 291.312,303.939 287.5,293.5C 287.286,281.24 292.953,273.24 304.5,269.5C 309.467,268.012 314.134,266.012 318.5,263.5C 320.781,262.793 322.948,261.793 325,260.5C 325.499,256.848 325.665,253.182 325.5,249.5C 326.974,246.673 326.64,244.173 324.5,242C 320.289,240.466 315.956,240.133 311.5,241C 310.667,241.833 309.833,242.667 309,243.5C 308.501,249.157 308.334,254.824 308.5,260.5C 303.821,260.666 299.155,260.499 294.5,260C 293.234,259.691 292.067,259.191 291,258.5C 290.501,252.843 290.334,247.176 290.5,241.5C 292.236,234.766 296.57,230.766 303.5,229.5C 312.862,228.002 322.195,228.168 331.5,230C 335.528,231.212 338.862,233.379 341.5,236.5 Z M 325.5,285.5 C 326.172,288.942 325.172,291.609 322.5,293.5C 316.747,293.072 316.08,290.905 320.5,287C 322.025,285.991 323.692,285.491 325.5,285.5 Z"/></g>
<g><path style="opacity:0.984" fill="#2d6382" d="M 341.5,236.5 C 343.61,237.453 344.777,239.119 345,241.5C 345.5,259.83 345.667,278.164 345.5,296.5C 344.668,278.671 344.168,260.671 344,242.5C 343.345,240.372 342.511,238.372 341.5,236.5 Z"/></g>
<g><path style="opacity:0.004" fill="#fefffe" d="M 196.5,265.5 C 197.833,266.167 197.833,266.167 196.5,265.5 Z"/></g>
<g><path style="opacity:0.004" fill="#fefffe" d="M 638.5,266.5 C 639.833,267.167 639.833,267.167 638.5,266.5 Z"/></g>
<g><path style="opacity:0.004" fill="#000000" d="M 293.5,267.5 C 294.833,268.167 294.833,268.167 293.5,267.5 Z"/></g>
<g><path style="opacity:0.222" fill="#010203" d="M 573.5,296.5 C 576.711,302.968 582.044,306.802 589.5,308C 597.167,308.667 604.833,308.667 612.5,308C 619.266,306.867 624.433,303.367 628,297.5C 628.667,289.833 628.667,282.167 628,274.5C 623.348,271.466 618.182,270.132 612.5,270.5C 619.05,268.009 625.717,268.176 632.5,271C 634.378,272.543 635.878,274.376 637,276.5C 637.667,284.5 637.667,292.5 637,300.5C 632.861,309.612 625.695,314.445 615.5,315C 606.78,315.839 598.113,315.505 589.5,314C 580.084,311.757 574.751,305.923 573.5,296.5 Z"/></g>
<g><path style="opacity:0.004" fill="#000000" d="M 658.5,273.5 C 659.833,274.167 659.833,274.167 658.5,273.5 Z"/></g>
<g><path style="opacity:0.357" fill="#090d10" d="M 325.5,285.5 C 323.692,285.491 322.025,285.991 320.5,287C 316.08,290.905 316.747,293.072 322.5,293.5C 319.022,296.277 315.022,297.11 310.5,296C 305.835,289.008 307.169,283.341 314.5,279C 318.229,276.769 322.229,275.269 326.5,274.5C 326.448,278.198 326.114,281.865 325.5,285.5 Z"/></g>
<g><path style="opacity:0.004" fill="#000000" d="M 220.5,288.5 C 221.833,289.167 221.833,289.167 220.5,288.5 Z"/></g>
<g><path style="opacity:0.004" fill="#fefffe" d="M 201.5,296.5 C 202.833,297.167 202.833,297.167 201.5,296.5 Z"/></g>
<g><path style="opacity:1" fill="#3a88ba" d="M 536.5,294.5 C 537.117,294.389 537.617,294.056 538,293.5C 538.499,289.179 538.666,284.846 538.5,280.5C 538.611,279.883 538.944,279.383 539.5,279C 545.651,277.921 551.484,278.754 557,281.5C 557.667,287.167 557.667,292.833 557,298.5C 555.5,301.333 553.333,303.5 550.5,305C 539.355,308.13 528.022,309.13 516.5,308C 509.998,306.434 504.998,302.934 501.5,297.5C 501.333,278.497 501.5,259.497 502,240.5C 502.792,238.413 503.959,236.579 505.5,235C 508.406,232.381 511.739,230.547 515.5,229.5C 520.147,229.019 524.814,228.686 529.5,228.5C 539.791,227.604 548.624,230.604 556,237.5C 561.088,250.471 557.588,260.471 545.5,267.5C 537.722,270.555 530.055,273.889 522.5,277.5C 521.181,283.874 521.347,290.208 523,296.5C 527.854,297.926 532.354,297.259 536.5,294.5 Z M 538.5,280.5 C 538.666,284.846 538.499,289.179 538,293.5C 537.617,294.056 537.117,294.389 536.5,294.5C 534.533,294.739 532.699,294.406 531,293.5C 528.441,286.111 530.941,281.778 538.5,280.5 Z M 538.5,250.5 C 537.931,254.329 535.931,256.996 532.5,258.5C 530.598,255.663 529.931,252.329 530.5,248.5C 532.857,248.337 535.19,248.503 537.5,249C 538.056,249.383 538.389,249.883 538.5,250.5 Z"/></g>
<g><path style="opacity:0.965" fill="#264c62" d="M 521.5,243.5 C 521.5,250.5 521.5,257.5 521.5,264.5C 524.719,264.224 527.385,262.891 529.5,260.5C 527.927,264.459 524.927,266.125 520.5,265.5C 520.175,257.981 520.508,250.648 521.5,243.5 Z"/></g>
<g><path style="opacity:0.325" fill="#030507" d="M 538.5,250.5 C 538.389,249.883 538.056,249.383 537.5,249C 535.19,248.503 532.857,248.337 530.5,248.5C 529.931,252.329 530.598,255.663 532.5,258.5C 531.71,259.401 530.71,260.068 529.5,260.5C 527.385,262.891 524.719,264.224 521.5,264.5C 521.5,257.5 521.5,250.5 521.5,243.5C 521.953,242.542 522.619,241.708 523.5,241C 527.167,240.333 530.833,240.333 534.5,241C 539.213,242.93 540.547,246.097 538.5,250.5 Z"/></g>
<g><path style="opacity:1" fill="#3988bb" d="M 167.5,294.5 C 169.798,290.454 170.131,286.12 168.5,281.5C 170.056,279.012 172.389,278.012 175.5,278.5C 180.27,278.277 184.437,279.61 188,282.5C 191.913,296.205 187.08,304.705 173.5,308C 164.833,308.667 156.167,308.667 147.5,308C 140.906,306.542 135.906,303.042 132.5,297.5C 132.333,278.497 132.5,259.497 133,240.5C 135.843,234.825 140.343,231.158 146.5,229.5C 151.147,229.019 155.814,228.686 160.5,228.5C 172.311,227.371 181.811,231.371 189,240.5C 190.988,250.4 188.155,258.567 180.5,265C 170.955,269.355 161.455,273.855 152,278.5C 151.333,283.5 151.333,288.5 152,293.5C 156.769,298.241 161.936,298.574 167.5,294.5 Z M 168.5,281.5 C 170.131,286.12 169.798,290.454 167.5,294.5C 162.761,295.593 160.761,293.76 161.5,289C 161.221,284.111 163.555,281.611 168.5,281.5 Z M 169.5,250.5 C 168.933,254.324 166.933,256.99 163.5,258.5C 161.598,255.663 160.931,252.329 161.5,248.5C 164.533,248.132 167.2,248.798 169.5,250.5 Z"/></g>
<g><path style="opacity:0.328" fill="#070a0d" d="M 169.5,250.5 C 167.2,248.798 164.533,248.132 161.5,248.5C 160.931,252.329 161.598,255.663 163.5,258.5C 159.997,261.667 155.997,264 151.5,265.5C 151.334,258.159 151.5,250.826 152,243.5C 152.833,242.667 153.667,241.833 154.5,241C 158.956,240.133 163.289,240.466 167.5,242C 170.686,244.185 171.352,247.018 169.5,250.5 Z"/></g>
<g><path style="opacity:0.004" fill="#fefffe" d="M 67.5,305.5 C 68.8333,306.167 68.8333,306.167 67.5,305.5 Z"/></g>
<g><path style="opacity:0.933" fill="#2e4e61" d="M 79.5,307.5 C 88.5,307.5 97.5,307.5 106.5,307.5C 97.491,310.065 88.491,310.065 79.5,307.5 Z"/></g>
<g><path style="opacity:0.939" fill="#30556d" d="M 371.5,305.5 C 378.724,307.112 386.058,307.778 393.5,307.5C 387.702,309.962 381.702,310.129 375.5,308C 373.68,307.8 372.347,306.966 371.5,305.5 Z"/></g>
<g><path style="opacity:0.004" fill="#000000" d="M 664.5,307.5 C 665.833,308.167 665.833,308.167 664.5,307.5 Z"/></g>
<g><path style="opacity:0.004" fill="#000000" d="M 259.5,315.5 C 260.833,316.167 260.833,316.167 259.5,315.5 Z"/></g>
<g><path style="opacity:0.004" fill="#000000" d="M 642.5,318.5 C 643.833,319.167 643.833,319.167 642.5,318.5 Z"/></g>
<g><path style="opacity:0.004" fill="#000000" d="M 95.5,319.5 C 96.8333,320.167 96.8333,320.167 95.5,319.5 Z"/></g>
<g><path style="opacity:0.004" fill="#000000" d="M 146.5,320.5 C 147.833,321.167 147.833,321.167 146.5,320.5 Z"/></g>
<g><path style="opacity:0.004" fill="#000000" d="M 338.5,323.5 C 339.833,324.167 339.833,324.167 338.5,323.5 Z"/></g>
<g><path style="opacity:0.004" fill="#000000" d="M 508.5,324.5 C 509.833,325.167 509.833,325.167 508.5,324.5 Z"/></g>
<g><path style="opacity:0.004" fill="#fefffe" d="M 537.5,326.5 C 538.833,327.167 538.833,327.167 537.5,326.5 Z"/></g>
<g><path style="opacity:0.004" fill="#000000" d="M 160.5,327.5 C 161.833,328.167 161.833,328.167 160.5,327.5 Z"/></g>
<g><path style="opacity:0.004" fill="#000000" d="M 45.5,328.5 C 46.8333,329.167 46.8333,329.167 45.5,328.5 Z"/></g>
<g><path style="opacity:0.004" fill="#fefffe" d="M 525.5,328.5 C 526.833,329.167 526.833,329.167 525.5,328.5 Z"/></g>
<g><path style="opacity:0.004" fill="#000000" d="M 175.5,333.5 C 176.833,334.167 176.833,334.167 175.5,333.5 Z"/></g>
<g><path style="opacity:0.004" fill="#fefffe" d="M 582.5,333.5 C 583.833,334.167 583.833,334.167 582.5,333.5 Z"/></g>
<g><path style="opacity:0.004" fill="#fefffe" d="M 268.5,337.5 C 269.833,338.167 269.833,338.167 268.5,337.5 Z"/></g>
<g><path style="opacity:0.004" fill="#fefffe" d="M 195.5,338.5 C 196.833,339.167 196.833,339.167 195.5,338.5 Z"/></g>
<g><path style="opacity:0.004" fill="#fefffe" d="M 33.5,339.5 C 34.8333,340.167 34.8333,340.167 33.5,339.5 Z"/></g>
<g><path style="opacity:0.004" fill="#000000" d="M 124.5,341.5 C 125.833,342.167 125.833,342.167 124.5,341.5 Z"/></g>
<g><path style="opacity:0.004" fill="#fefffe" d="M 91.5,344.5 C 92.8333,345.167 92.8333,345.167 91.5,344.5 Z"/></g>
<g><path style="opacity:0.004" fill="#000000" d="M 47.5,346.5 C 48.8333,347.167 48.8333,347.167 47.5,346.5 Z"/></g>
<g><path style="opacity:0.004" fill="#000000" d="M 272.5,356.5 C 273.833,357.167 273.833,357.167 272.5,356.5 Z"/></g>
<g><path style="opacity:0.004" fill="#000000" d="M 476.5,356.5 C 477.833,357.167 477.833,357.167 476.5,356.5 Z"/></g>
<g><path style="opacity:0.004" fill="#000000" d="M 636.5,360.5 C 637.833,361.167 637.833,361.167 636.5,360.5 Z"/></g>
<g><path style="opacity:0.004" fill="#000000" d="M 510.5,361.5 C 511.833,362.167 511.833,362.167 510.5,361.5 Z"/></g>
<g><path style="opacity:0.004" fill="#fefffe" d="M 295.5,363.5 C 296.833,364.167 296.833,364.167 295.5,363.5 Z"/></g>
<g><path style="opacity:0.004" fill="#fefffe" d="M 541.5,363.5 C 542.833,364.167 542.833,364.167 541.5,363.5 Z"/></g>
<g><path style="opacity:0.004" fill="#000000" d="M 286.5,365.5 C 287.833,366.167 287.833,366.167 286.5,365.5 Z"/></g>
<g><path style="opacity:0.004" fill="#000000" d="M 639.5,366.5 C 640.833,367.167 640.833,367.167 639.5,366.5 Z"/></g>
<g><path style="opacity:0.004" fill="#000000" d="M 285.5,371.5 C 286.833,372.167 286.833,372.167 285.5,371.5 Z"/></g>
<g><path style="opacity:0.004" fill="#fefffe" d="M 378.5,373.5 C 377.833,372.167 377.833,372.167 378.5,373.5 Z"/></g>
</svg>
