<?xml version="1.0" encoding="UTF-8"?>
<!DOCTYPE svg PUBLIC "-//W3C//DTD SVG 1.1//EN" "http://www.w3.org/Graphics/SVG/1.1/DTD/svg11.dtd">
<svg xmlns="http://www.w3.org/2000/svg" version="1.1" width="185px" height="167px" style="shape-rendering:geometricPrecision; text-rendering:geometricPrecision; image-rendering:optimizeQuality; fill-rule:evenodd; clip-rule:evenodd" xmlns:xlink="http://www.w3.org/1999/xlink">
<g><path style="opacity:0.004" fill="#fefffe" d="M 127.5,-0.5 C 127.833,-0.5 128.167,-0.5 128.5,-0.5C 128.315,0.170143 127.981,0.170143 127.5,-0.5 Z"/></g>
<g><path style="opacity:0.004" fill="#fefffe" d="M 3.5,5.5 C 4.83333,6.16667 4.83333,6.16667 3.5,5.5 Z"/></g>
<g><path style="opacity:0.004" fill="#fefffe" d="M 114.5,7.5 C 115.833,8.16667 115.833,8.16667 114.5,7.5 Z"/></g>
<g><path style="opacity:0.086" fill="#242c2c" d="M 87.5,10.5 C 86.4863,11.6737 85.153,12.3404 83.5,12.5C 84.287,10.8958 85.6203,10.2291 87.5,10.5 Z"/></g>
<g><path style="opacity:0.004" fill="#fefffe" d="M 154.5,11.5 C 155.833,12.1667 155.833,12.1667 154.5,11.5 Z"/></g>
<g><path style="opacity:0.004" fill="#fefefe" d="M 139.5,12.5 C 140.833,13.1667 140.833,13.1667 139.5,12.5 Z"/></g>
<g><path style="opacity:0.004" fill="#fefffe" d="M 25.5,13.5 C 26.8333,14.1667 26.8333,14.1667 25.5,13.5 Z"/></g>
<g><path style="opacity:1" fill="#73b0c2" d="M 90.5,9.5 C 96.2969,9.89426 101.63,11.7276 106.5,15C 114.083,24.8397 121.416,34.8397 128.5,45C 128.387,46.2798 127.72,47.1131 126.5,47.5C 115.578,52.6951 104.578,57.6951 93.5,62.5C 90.8136,60.1442 88.147,57.8109 85.5,55.5C 84.588,53.4048 83.4213,51.4048 82,49.5C 81.3292,48.7476 80.4959,48.4142 79.5,48.5C 78.2128,45.5468 76.2128,43.2135 73.5,41.5C 70.2897,36.1102 66.4564,31.1102 62,26.5C 61.5304,25.4232 61.6971,24.4232 62.5,23.5C 69.4112,18.8848 76.4112,15.2181 83.5,12.5C 85.153,12.3404 86.4863,11.6737 87.5,10.5C 88.209,9.59603 89.209,9.26269 90.5,9.5 Z"/></g>
<g><path style="opacity:0.004" fill="#fefffe" d="M 44.5,16.5 C 45.8333,17.1667 45.8333,17.1667 44.5,16.5 Z"/></g>
<g><path style="opacity:0.004" fill="#fefffe" d="M 161.5,16.5 C 162.833,17.1667 162.833,17.1667 161.5,16.5 Z"/></g>
<g><path style="opacity:0.102" fill="#0c1011" d="M 90.5,9.5 C 93.7167,8.40467 97.05,8.57134 100.5,10C 103.833,11.6667 107.167,13.3333 110.5,15C 111.252,15.6708 111.586,16.5041 111.5,17.5C 116.821,26.125 122.655,34.4583 129,42.5C 129.739,43.5742 130.739,44.2409 132,44.5C 135.373,43.3788 138.539,41.8788 141.5,40C 142.576,38.2739 142.743,36.4406 142,34.5C 132.186,28.6801 122.352,23.0134 112.5,17.5C 123.73,21.8647 134.564,27.198 145,33.5C 145.741,36.562 145.575,39.562 144.5,42.5C 145.628,43.2621 146.795,43.9288 148,44.5C 148.5,62.4969 148.667,80.4969 148.5,98.5C 148.5,98.8333 148.5,99.1667 148.5,99.5C 147.127,99.6567 145.793,99.49 144.5,99C 145.993,97.8438 145.826,97.0104 144,96.5C 140.529,95.6289 137.362,94.2955 134.5,92.5C 138.207,92.7915 141.707,93.7915 145,95.5C 145.667,80.8333 145.667,66.1667 145,51.5C 138.239,60.0473 131.739,68.7139 125.5,77.5C 123.45,79.2368 121.617,81.2368 120,83.5C 119.421,84.9285 119.588,86.2618 120.5,87.5C 117.673,86.0265 115.173,86.3598 113,88.5C 108.218,97.0878 102.718,105.088 96.5,112.5C 94.415,116.281 94.0817,120.281 95.5,124.5C 98.4037,122.88 101.404,121.547 104.5,120.5C 102.381,122.4 100.047,124.066 97.5,125.5C 93.8126,127.243 90.4792,126.743 87.5,124C 88.4491,123.383 89.2825,123.549 90,124.5C 90.4998,115.173 90.6665,105.839 90.5,96.5C 91.8177,86.0685 91.8177,75.7352 90.5,65.5C 85.8333,68.5 81.1667,71.5 76.5,74.5C 79.3176,71.4951 82.4842,68.8284 86,66.5C 86.7494,65.365 86.5827,64.365 85.5,63.5C 73.1975,57.6829 60.8641,51.8496 48.5,46C 46.5273,45.5045 44.5273,45.3379 42.5,45.5C 43.2625,44.7321 44.2625,44.2321 45.5,44C 44.3333,43.5 43.5,42.6667 43,41.5C 42.1993,38.633 42.3659,35.9664 43.5,33.5C 43.0548,36.3646 43.7215,38.8646 45.5,41C 59.4401,46.9705 73.1067,53.4705 86.5,60.5C 86.8333,60.1667 87.1667,59.8333 87.5,59.5C 86.3698,58.3777 85.7031,57.0443 85.5,55.5C 88.147,57.8109 90.8136,60.1442 93.5,62.5C 104.578,57.6951 115.578,52.6951 126.5,47.5C 127.72,47.1131 128.387,46.2798 128.5,45C 121.416,34.8397 114.083,24.8397 106.5,15C 101.63,11.7276 96.2969,9.89426 90.5,9.5 Z M 94.5,65.5 C 95.5,65.5 96.5,65.5 97.5,65.5C 97.5,66.5 97.5,67.5 97.5,68.5C 96.5,68.5 95.5,68.5 94.5,68.5C 94.5,67.5 94.5,66.5 94.5,65.5 Z"/></g>
<g><path style="opacity:0.004" fill="#fefffe" d="M 14.5,21.5 C 15.8333,22.1667 15.8333,22.1667 14.5,21.5 Z"/></g>
<g><path style="opacity:0.004" fill="#fefffe" d="M 46.5,22.5 C 47.8333,23.1667 47.8333,23.1667 46.5,22.5 Z"/></g>
<g><path style="opacity:0.004" fill="#fefffe" d="M 141.5,22.5 C 142.833,23.1667 142.833,23.1667 141.5,22.5 Z"/></g>
<g><path style="opacity:0.041" fill="#11171a" d="M 62.5,23.5 C 61.6971,24.4232 61.5304,25.4232 62,26.5C 66.4564,31.1102 70.2897,36.1102 73.5,41.5C 69.3765,37.9206 65.7099,33.9206 62.5,29.5C 61.5,28.1667 60.5,26.8333 59.5,25.5C 60.2223,24.4489 61.2223,23.7822 62.5,23.5 Z"/></g>
<g><path style="opacity:0.004" fill="#fefffe" d="M 7.5,24.5 C 8.83333,25.1667 8.83333,25.1667 7.5,24.5 Z"/></g>
<g><path style="opacity:0.004" fill="#fefffe" d="M 152.5,24.5 C 153.833,25.1667 153.833,25.1667 152.5,24.5 Z"/></g>
<g><path style="opacity:1" fill="#73acbc" d="M 111.5,17.5 C 111.833,17.5 112.167,17.5 112.5,17.5C 122.352,23.0134 132.186,28.6801 142,34.5C 142.743,36.4406 142.576,38.2739 141.5,40C 138.539,41.8788 135.373,43.3788 132,44.5C 130.739,44.2409 129.739,43.5742 129,42.5C 122.655,34.4583 116.821,26.125 111.5,17.5 Z"/></g>
<g><path style="opacity:1" fill="#2c4a62" d="M 59.5,25.5 C 60.5,26.8333 61.5,28.1667 62.5,29.5C 60.9064,29.0805 59.4064,28.4138 58,27.5C 54.3801,30.5844 50.2134,32.251 45.5,32.5C 49.3272,28.6579 53.9939,26.3245 59.5,25.5 Z"/></g>
<g><path style="opacity:1" fill="#236193" d="M 62.5,29.5 C 65.7099,33.9206 69.3765,37.9206 73.5,41.5C 74.7573,44.4274 76.7573,46.7607 79.5,48.5C 80.7573,51.4274 82.7573,53.7607 85.5,55.5C 85.7031,57.0443 86.3698,58.3777 87.5,59.5C 87.1667,59.8333 86.8333,60.1667 86.5,60.5C 73.1067,53.4705 59.4401,46.9705 45.5,41C 43.7215,38.8646 43.0548,36.3646 43.5,33.5C 43.8417,32.6618 44.5084,32.3284 45.5,32.5C 50.2134,32.251 54.3801,30.5844 58,27.5C 59.4064,28.4138 60.9064,29.0805 62.5,29.5 Z"/></g>
<g><path style="opacity:0.004" fill="#fefffe" d="M 29.5,43.5 C 30.8333,44.1667 30.8333,44.1667 29.5,43.5 Z"/></g>
<g><path style="opacity:0.267" fill="#0d1317" d="M 73.5,41.5 C 76.2128,43.2135 78.2128,45.5468 79.5,48.5C 76.7573,46.7607 74.7573,44.4274 73.5,41.5 Z"/></g>
<g><path style="opacity:0.058" fill="#0d1416" d="M 39.5,48.5 C 40.1666,56.3433 40.8333,64.3433 41.5,72.5C 48.0528,75.6076 54.3861,78.941 60.5,82.5C 53.7486,80.2101 47.2486,77.2101 41,73.5C 40.1787,80.6791 40.3454,87.6791 41.5,94.5C 40.2721,96.0098 40.2721,97.5098 41.5,99C 52.5856,104.296 63.2523,110.129 73.5,116.5C 61.2542,111.378 49.5875,105.211 38.5,98C 36.5273,97.5045 34.5273,97.3379 32.5,97.5C 34.6074,96.5318 36.9407,96.1984 39.5,96.5C 39.5,80.5 39.5,64.5 39.5,48.5 Z"/></g>
<g><path style="opacity:0.239" fill="#080e11" d="M 79.5,48.5 C 80.4959,48.4142 81.3292,48.7476 82,49.5C 83.4213,51.4048 84.588,53.4048 85.5,55.5C 82.7573,53.7607 80.7573,51.4274 79.5,48.5 Z"/></g>
<g><path style="opacity:0.004" fill="#fefffe" d="M 19.5,56.5 C 20.8333,57.1667 20.8333,57.1667 19.5,56.5 Z"/></g>
<g><path style="opacity:1" fill="#73afc1" d="M 139.5,44.5 C 141.199,44.3398 142.866,44.5065 144.5,45C 145.517,46.0495 145.684,47.2161 145,48.5C 135.333,60.8333 125.667,73.1667 116,85.5C 110.699,79.1979 105.032,73.1979 99,67.5C 98.3333,66.5 98.3333,65.5 99,64.5C 112.638,57.9307 126.138,51.264 139.5,44.5 Z"/></g>
<g><path style="opacity:1" fill="#d3e2e8" d="M 134.5,92.5 C 133.71,91.5987 132.71,90.9321 131.5,90.5C 131.047,89.5416 130.381,88.7083 129.5,88C 126.756,87.1965 124.089,86.1965 121.5,85C 122.986,82.5255 124.319,80.0255 125.5,77.5C 131.739,68.7139 138.239,60.0473 145,51.5C 145.667,66.1667 145.667,80.8333 145,95.5C 141.707,93.7915 138.207,92.7915 134.5,92.5 Z"/></g>
<g><path style="opacity:0.004" fill="#fefffe" d="M 3.5,60.5 C 4.83333,61.1667 4.83333,61.1667 3.5,60.5 Z"/></g>
<g><path style="opacity:0.004" fill="#fefffe" d="M 21.5,60.5 C 22.8333,61.1667 22.8333,61.1667 21.5,60.5 Z"/></g>
<g><path style="opacity:0.004" fill="#fefffe" d="M 35.5,60.5 C 36.8333,61.1667 36.8333,61.1667 35.5,60.5 Z"/></g>
<g><path style="opacity:0.004" fill="#fefffe" d="M 9.5,69.5 C 10.8333,70.1667 10.8333,70.1667 9.5,69.5 Z"/></g>
<g><path style="opacity:1" fill="#3588bb" d="M 42.5,45.5 C 44.5273,45.3379 46.5273,45.5045 48.5,46C 60.8641,51.8496 73.1975,57.6829 85.5,63.5C 86.5827,64.365 86.7494,65.365 86,66.5C 82.4842,68.8284 79.3176,71.4951 76.5,74.5C 72.12,76.7001 68.12,79.5335 64.5,83C 63.1807,83.195 61.8474,83.0283 60.5,82.5C 54.3861,78.941 48.0528,75.6076 41.5,72.5C 40.8333,64.3433 40.1666,56.3433 39.5,48.5C 39.8564,46.8102 40.8564,45.8102 42.5,45.5 Z"/></g>
<g><path style="opacity:0.004" fill="#fefffe" d="M 160.5,71.5 C 161.833,72.1667 161.833,72.1667 160.5,71.5 Z"/></g>
<g><path style="opacity:1" fill="#6ea8ba" d="M 60.5,82.5 C 61.1098,83.391 61.4431,84.391 61.5,85.5C 58.0567,86.0592 55.0567,87.3926 52.5,89.5C 47.9118,89.2964 44.2451,90.963 41.5,94.5C 40.3454,87.6791 40.1787,80.6791 41,73.5C 47.2486,77.2101 53.7486,80.2101 60.5,82.5 Z"/></g>
<g><path style="opacity:0.561" fill="#264b5a" d="M 90.5,65.5 C 91.8177,75.7352 91.8177,86.0685 90.5,96.5C 88.326,96.2503 86.6594,95.2503 85.5,93.5C 86.9305,93.4208 88.2638,93.7542 89.5,94.5C 90.4984,84.8563 90.8318,75.1896 90.5,65.5 Z"/></g>
<g><path style="opacity:0.004" fill="#fefffe" d="M 34.5,82.5 C 35.8333,83.1667 35.8333,83.1667 34.5,82.5 Z"/></g>
<g><path style="opacity:1" fill="#23638a" d="M 97.5,87.5 C 96.8333,87.5 96.1667,87.5 95.5,87.5C 94.2122,81.5543 94.2122,75.5543 95.5,69.5C 101.167,74.5 106.5,79.8333 111.5,85.5C 106.683,86.1669 102.017,86.8335 97.5,87.5 Z"/></g>
<g><path style="opacity:1" fill="#2d8fbd" d="M 90.5,65.5 C 90.8318,75.1896 90.4984,84.8563 89.5,94.5C 88.2638,93.7542 86.9305,93.4208 85.5,93.5C 79.8043,90.3224 73.8043,87.6557 67.5,85.5C 67.5,84.8333 67.1667,84.5 66.5,84.5C 69.4789,80.8544 72.8123,77.521 76.5,74.5C 81.1667,71.5 85.8333,68.5 90.5,65.5 Z"/></g>
<g><path style="opacity:0.525" fill="#76959f" d="M 125.5,77.5 C 124.319,80.0255 122.986,82.5255 121.5,85C 124.089,86.1965 126.756,87.1965 129.5,88C 130.381,88.7083 131.047,89.5416 131.5,90.5C 127.962,88.9476 124.296,87.9476 120.5,87.5C 119.588,86.2618 119.421,84.9285 120,83.5C 121.617,81.2368 123.45,79.2368 125.5,77.5 Z"/></g>
<g><path style="opacity:0.004" fill="#fefffe" d="M 169.5,88.5 C 170.833,89.1667 170.833,89.1667 169.5,88.5 Z"/></g>
<g><path style="opacity:0.204" fill="#182227" d="M 120.5,87.5 C 124.296,87.9476 127.962,88.9476 131.5,90.5C 132.71,90.9321 133.71,91.5987 134.5,92.5C 129.421,91.588 124.755,89.9214 120.5,87.5 Z"/></g>
<g><path style="opacity:0.42" fill="#1c2e37" d="M 52.5,89.5 C 49.2488,91.9569 45.5821,93.6236 41.5,94.5C 44.2451,90.963 47.9118,89.2964 52.5,89.5 Z"/></g>
<g><path style="opacity:0.369" fill="#1d313a" d="M 67.5,85.5 C 73.8043,87.6557 79.8043,90.3224 85.5,93.5C 78.4639,92.9241 72.4639,90.2574 67.5,85.5 Z"/></g>
<g><path style="opacity:1" fill="#6dabbe" d="M 108.5,88.5 C 110.225,88.8425 110.725,89.8425 110,91.5C 105.242,98.0226 100.742,104.689 96.5,111.5C 95.508,104.018 95.1746,96.3516 95.5,88.5C 99.8333,88.5 104.167,88.5 108.5,88.5 Z"/></g>
<g><path style="opacity:0.267" fill="#394549" d="M 32.5,97.5 C 31.0101,99.2798 29.0101,99.9465 26.5,99.5C 28.1016,97.9261 30.1016,97.2594 32.5,97.5 Z"/></g>
<g><path style="opacity:1" fill="#20648e" d="M 61.5,85.5 C 67.0438,95.584 72.3771,105.917 77.5,116.5C 76.3002,117.292 74.9669,117.292 73.5,116.5C 63.2523,110.129 52.5856,104.296 41.5,99C 40.2721,97.5098 40.2721,96.0098 41.5,94.5C 45.5821,93.6236 49.2488,91.9569 52.5,89.5C 55.0567,87.3926 58.0567,86.0592 61.5,85.5 Z"/></g>
<g><path style="opacity:0.107" fill="#07090a" d="M 148.5,99.5 C 148.5,99.1667 148.5,98.8333 148.5,98.5C 153.483,98.4124 158.149,99.579 162.5,102C 164.016,103.897 164.683,106.064 164.5,108.5C 166.92,108.292 169.253,108.626 171.5,109.5C 172.429,110.689 172.762,112.022 172.5,113.5C 176.886,113.263 180.886,114.263 184.5,116.5C 184.5,118.167 184.5,119.833 184.5,121.5C 182.852,122.777 181.018,123.777 179,124.5C 178.667,126.833 178.333,129.167 178,131.5C 177.5,132.667 176.667,133.5 175.5,134C 165.794,134.189 156.127,133.855 146.5,133C 139.167,136 131.833,139 124.5,142C 120.5,142.667 116.5,142.667 112.5,142C 101.471,137.712 90.138,134.546 78.5,132.5C 78.5,133.833 78.5,135.167 78.5,136.5C 79.5,136.5 80.5,136.5 81.5,136.5C 80.791,137.404 79.791,137.737 78.5,137.5C 78.5726,140.95 80.4059,142.283 84,141.5C 87.6589,142.24 89.8256,140.907 90.5,137.5C 87.8728,136.908 85.2062,136.575 82.5,136.5C 85.9887,135.321 89.4887,135.654 93,137.5C 94.7577,143.743 92.4244,146.076 86,144.5C 80.5812,145.891 77.5812,143.891 77,138.5C 71.8012,141.142 66.6346,141.142 61.5,138.5C 50.5687,140.107 39.5687,140.607 28.5,140C 23.2124,139.587 21.5458,137.087 23.5,132.5C 23.4326,135.766 25.0992,137.266 28.5,137C 38.5475,137.58 48.5475,137.08 58.5,135.5C 56.585,133.929 55.585,131.929 55.5,129.5C 59.0365,128.43 62.7031,127.763 66.5,127.5C 74.6139,128.19 82.6139,129.523 90.5,131.5C 97.8206,133.663 105.154,136.163 112.5,139C 120.708,140.265 128.042,138.265 134.5,133C 137.774,131.798 141.107,130.798 144.5,130C 153.843,130.203 163.177,130.536 172.5,131C 175.351,129.258 176.018,126.925 174.5,124C 169.844,123.335 165.177,122.835 160.5,122.5C 161.167,120.167 161.833,117.833 162.5,115.5C 159.833,115.167 157.167,114.833 154.5,114.5C 154.351,113.448 154.517,112.448 155,111.5C 162.851,105.901 162.017,102.235 152.5,100.5C 151.432,99.5655 150.099,99.2322 148.5,99.5 Z"/></g>
<g><path style="opacity:0.276" fill="#51747e" d="M 95.5,87.5 C 96.1667,87.5 96.8333,87.5 97.5,87.5C 101.371,87.185 105.038,87.5184 108.5,88.5C 104.167,88.5 99.8333,88.5 95.5,88.5C 95.1746,96.3516 95.508,104.018 96.5,111.5C 96.5,111.833 96.5,112.167 96.5,112.5C 95.1752,108.724 94.5085,104.557 94.5,100C 94.501,95.6528 94.8343,91.4861 95.5,87.5 Z"/></g>
<g><path style="opacity:0.133" fill="#3d4b50" d="M 26.5,99.5 C 24.4984,101.482 22.1651,103.148 19.5,104.5C 20.9923,101.677 23.3257,100.01 26.5,99.5 Z"/></g>
<g><path style="opacity:0.373" fill="#131d22" d="M 142.5,101.5 C 136.959,104.437 131.292,107.104 125.5,109.5C 130.447,106.021 135.78,103.021 141.5,100.5C 142.107,100.624 142.44,100.957 142.5,101.5 Z"/></g>
<g><path style="opacity:0.004" fill="#fefffe" d="M 167.5,104.5 C 168.833,105.167 168.833,105.167 167.5,104.5 Z"/></g>
<g><path style="opacity:0.086" fill="#020202" d="M 18.5,105.5 C 18.2865,107.144 18.6198,108.644 19.5,110C 22.1667,110.333 24.8333,110.667 27.5,111C 25.9366,112.947 23.9366,114.114 21.5,114.5C 20.469,113.751 19.3024,113.085 18,112.5C 17.2042,109.961 17.3709,107.628 18.5,105.5 Z"/></g>
<g><path style="opacity:1" fill="#73afc1" d="M 66.5,84.5 C 67.1667,84.5 67.5,84.8333 67.5,85.5C 72.4639,90.2574 78.4639,92.9241 85.5,93.5C 86.6594,95.2503 88.326,96.2503 90.5,96.5C 90.6665,105.839 90.4998,115.173 90,124.5C 89.2825,123.549 88.4491,123.383 87.5,124C 90.4792,126.743 93.8126,127.243 97.5,125.5C 95.9749,127.036 93.9749,128.036 91.5,128.5C 90.8728,129.417 90.5394,130.417 90.5,131.5C 82.6139,129.523 74.6139,128.19 66.5,127.5C 62.7031,127.763 59.0365,128.43 55.5,129.5C 55.585,131.929 56.585,133.929 58.5,135.5C 48.5475,137.08 38.5475,137.58 28.5,137C 25.0992,137.266 23.4326,135.766 23.5,132.5C 24.8333,131.833 25.8333,130.833 26.5,129.5C 27.8149,128.524 29.1482,127.524 30.5,126.5C 23.1834,125.54 15.85,124.706 8.5,124C 5.96478,123.072 4.96478,121.238 5.5,118.5C 7.89837,118.741 9.89837,118.074 11.5,116.5C 11.8333,116.5 12.1667,116.5 12.5,116.5C 15.8774,116.932 18.8774,116.265 21.5,114.5C 23.9366,114.114 25.9366,112.947 27.5,111C 24.8333,110.667 22.1667,110.333 19.5,110C 18.6198,108.644 18.2865,107.144 18.5,105.5C 18.5,104.833 18.8333,104.5 19.5,104.5C 22.1651,103.148 24.4984,101.482 26.5,99.5C 29.0101,99.9465 31.0101,99.2798 32.5,97.5C 34.5273,97.3379 36.5273,97.5045 38.5,98C 49.5875,105.211 61.2542,111.378 73.5,116.5C 75.6192,118.928 78.2859,120.095 81.5,120C 75.7209,108.942 70.0543,97.7758 64.5,86.5C 65.2427,85.8182 65.9094,85.1515 66.5,84.5 Z"/></g>
<g><path style="opacity:1" fill="#2f8eba" d="M 120.5,87.5 C 124.755,89.9214 129.421,91.588 134.5,92.5C 137.362,94.2955 140.529,95.6289 144,96.5C 145.826,97.0104 145.993,97.8438 144.5,99C 145.793,99.49 147.127,99.6567 148.5,99.5C 150.099,99.2322 151.432,99.5655 152.5,100.5C 149.098,100.342 145.764,100.676 142.5,101.5C 142.44,100.957 142.107,100.624 141.5,100.5C 135.78,103.021 130.447,106.021 125.5,109.5C 118.019,112.406 111.019,116.072 104.5,120.5C 101.404,121.547 98.4037,122.88 95.5,124.5C 94.0817,120.281 94.415,116.281 96.5,112.5C 102.718,105.088 108.218,97.0878 113,88.5C 115.173,86.3598 117.673,86.0265 120.5,87.5 Z"/></g>
<g><path style="opacity:1" fill="#74b0c2" d="M 152.5,100.5 C 162.017,102.235 162.851,105.901 155,111.5C 154.517,112.448 154.351,113.448 154.5,114.5C 157.167,114.833 159.833,115.167 162.5,115.5C 161.833,117.833 161.167,120.167 160.5,122.5C 165.177,122.835 169.844,123.335 174.5,124C 176.018,126.925 175.351,129.258 172.5,131C 163.177,130.536 153.843,130.203 144.5,130C 141.107,130.798 137.774,131.798 134.5,133C 128.042,138.265 120.708,140.265 112.5,139C 105.154,136.163 97.8206,133.663 90.5,131.5C 90.5394,130.417 90.8728,129.417 91.5,128.5C 93.9749,128.036 95.9749,127.036 97.5,125.5C 100.047,124.066 102.381,122.4 104.5,120.5C 111.104,117.535 117.77,114.535 124.5,111.5C 125.298,111.043 125.631,110.376 125.5,109.5C 131.292,107.104 136.959,104.437 142.5,101.5C 145.764,100.676 149.098,100.342 152.5,100.5 Z"/></g>
<g><path style="opacity:1" fill="#71a5b2" d="M 160.5,109.5 C 163.187,109.336 165.854,109.503 168.5,110C 169.337,111.011 169.67,112.178 169.5,113.5C 166.167,113.5 162.833,113.5 159.5,113.5C 159.433,112.041 159.766,110.708 160.5,109.5 Z"/></g>
<g><path style="opacity:0.004" fill="#fefffe" d="M 10.5,113.5 C 11.8333,114.167 11.8333,114.167 10.5,113.5 Z"/></g>
<g><path style="opacity:0.004" fill="#fefffe" d="M 13.5,113.5 C 14.8333,114.167 14.8333,114.167 13.5,113.5 Z"/></g>
<g><path style="opacity:0.192" fill="#2b3538" d="M 21.5,114.5 C 18.8774,116.265 15.8774,116.932 12.5,116.5C 15.3112,115.525 18.3112,114.858 21.5,114.5 Z"/></g>
<g><path style="opacity:0.357" fill="#1c2e36" d="M 125.5,109.5 C 125.631,110.376 125.298,111.043 124.5,111.5C 117.77,114.535 111.104,117.535 104.5,120.5C 111.019,116.072 118.019,112.406 125.5,109.5 Z"/></g>
<g><path style="opacity:0.17" fill="#121b1f" d="M 76.5,74.5 C 72.8123,77.521 69.4789,80.8544 66.5,84.5C 65.9094,85.1515 65.2427,85.8182 64.5,86.5C 70.0543,97.7758 75.7209,108.942 81.5,120C 78.2859,120.095 75.6192,118.928 73.5,116.5C 74.9669,117.292 76.3002,117.292 77.5,116.5C 72.3771,105.917 67.0438,95.584 61.5,85.5C 61.4431,84.391 61.1098,83.391 60.5,82.5C 61.8474,83.0283 63.1807,83.195 64.5,83C 68.12,79.5335 72.12,76.7001 76.5,74.5 Z"/></g>
<g><path style="opacity:0.004" fill="#fefffe" d="M 1.5,117.5 C 2.83333,118.167 2.83333,118.167 1.5,117.5 Z"/></g>
<g><path style="opacity:0.298" fill="#363f43" d="M 11.5,116.5 C 9.89837,118.074 7.89837,118.741 5.5,118.5C 7.10163,116.926 9.10163,116.259 11.5,116.5 Z"/></g>
<g><path style="opacity:1" fill="#78a9b9" d="M 169.5,114.5 C 173.273,114.263 176.94,114.763 180.5,116C 181.517,117.049 181.684,118.216 181,119.5C 176.263,120.469 171.43,120.803 166.5,120.5C 166.028,117.642 167.028,115.642 169.5,114.5 Z"/></g>
<g><path style="opacity:0.1" fill="#060808" d="M 5.5,118.5 C 4.96478,121.238 5.96478,123.072 8.5,124C 15.85,124.706 23.1834,125.54 30.5,126.5C 29.1482,127.524 27.8149,128.524 26.5,129.5C 19.6242,128.427 12.6242,127.26 5.5,126C 4.18575,123.395 4.18575,120.895 5.5,118.5 Z"/></g>
<g><path style="opacity:0.039" fill="#242424" d="M 26.5,129.5 C 25.8333,130.833 24.8333,131.833 23.5,132.5C 23.5,130.5 24.5,129.5 26.5,129.5 Z"/></g>
<g><path style="opacity:0.004" fill="#fefffe" d="M 13.5,134.5 C 14.8333,135.167 14.8333,135.167 13.5,134.5 Z"/></g>
<g><path style="opacity:1" fill="#6ea5b6" d="M 63.5,130.5 C 66.5184,130.335 69.5184,130.502 72.5,131C 76.5871,133.437 76.2538,135.437 71.5,137C 69.1667,137.667 66.8333,137.667 64.5,137C 61.0229,135.268 60.6896,133.101 63.5,130.5 Z"/></g>
<g><path style="opacity:0.004" fill="#fefffe" d="M 184.5,138.5 C 184.5,138.833 184.5,139.167 184.5,139.5C 183.83,139.019 183.83,138.685 184.5,138.5 Z"/></g>
<g><path style="opacity:0.994" fill="#6ca0ae" d="M 81.5,136.5 C 81.8333,136.5 82.1667,136.5 82.5,136.5C 85.2062,136.575 87.8728,136.908 90.5,137.5C 89.8256,140.907 87.6589,142.24 84,141.5C 80.4059,142.283 78.5726,140.95 78.5,137.5C 79.791,137.737 80.791,137.404 81.5,136.5 Z"/></g>
<g><path style="opacity:0.004" fill="#fefffe" d="M 150.5,141.5 C 151.833,142.167 151.833,142.167 150.5,141.5 Z"/></g>
<g><path style="opacity:0.004" fill="#fefffe" d="M 42.5,146.5 C 43.8333,147.167 43.8333,147.167 42.5,146.5 Z"/></g>
<g><path style="opacity:0.004" fill="#fefffe" d="M 8.5,149.5 C 9.83333,150.167 9.83333,150.167 8.5,149.5 Z"/></g>
<g><path style="opacity:0.004" fill="#fefffe" d="M 6.5,150.5 C 7.83333,151.167 7.83333,151.167 6.5,150.5 Z"/></g>
<g><path style="opacity:0.004" fill="#fefffe" d="M 41.5,150.5 C 42.8333,151.167 42.8333,151.167 41.5,150.5 Z"/></g>
<g><path style="opacity:0.004" fill="#fefffe" d="M 23.5,155.5 C 24.8333,156.167 24.8333,156.167 23.5,155.5 Z"/></g>
<g><path style="opacity:0.004" fill="#fefffe" d="M 71.5,155.5 C 72.8333,156.167 72.8333,156.167 71.5,155.5 Z"/></g>
<g><path style="opacity:0.004" fill="#fefffe" d="M 135.5,155.5 C 136.833,156.167 136.833,156.167 135.5,155.5 Z"/></g>
<g><path style="opacity:0.004" fill="#fefffe" d="M 158.5,155.5 C 159.833,156.167 159.833,156.167 158.5,155.5 Z"/></g>
<g><path style="opacity:0.004" fill="#fefffe" d="M 168.5,156.5 C 169.833,157.167 169.833,157.167 168.5,156.5 Z"/></g>
<g><path style="opacity:0.004" fill="#fefffe" d="M 72.5,157.5 C 73.8333,158.167 73.8333,158.167 72.5,157.5 Z"/></g>
<g><path style="opacity:0.004" fill="#fefffe" d="M 93.5,157.5 C 94.8333,158.167 94.8333,158.167 93.5,157.5 Z"/></g>
<g><path style="opacity:0.004" fill="#fefffe" d="M 133.5,163.5 C 134.833,164.167 134.833,164.167 133.5,163.5 Z"/></g>
<g><path style="opacity:0.004" fill="#fefffe" d="M 61.5,166.5 C 60.8333,165.167 60.8333,165.167 61.5,166.5 Z"/></g>
</svg>
